<svg width="1900" height="867" viewBox="0 0 1900 867" fill="none" xmlns="http://www.w3.org/2000/svg">
<g clip-path="url(#clip0_1239_47)">
<rect width="1900" height="867" fill="#141414"/>
<g clip-path="url(#clip1_1239_47)">
<rect width="2128.16" height="95.4431" transform="translate(-30.3291 122) rotate(15)" fill="#5AC7A5"/>
<path d="M-288.988 128.461L-277.394 85.1871L-259.59 89.9572C-255.757 90.9841 -252.646 92.4801 -250.257 94.4453C-247.827 96.4215 -246.18 98.7623 -245.314 101.468C-244.449 104.173 -244.441 107.113 -245.292 110.286C-246.142 113.459 -247.618 116.001 -249.72 117.912C-251.811 119.781 -254.403 120.964 -257.495 121.46C-260.536 121.927 -263.972 121.647 -267.805 120.62L-281.158 117.042L-276.595 114.355L-280.951 130.614L-288.988 128.461ZM-260.674 136.047L-267.41 117.413L-258.817 119.715L-252.02 138.365L-260.674 136.047ZM-276.827 115.221L-279.386 110.427L-266.404 113.906C-262.859 114.855 -259.997 114.805 -257.816 113.755C-255.594 112.716 -254.119 110.836 -253.39 108.116C-252.65 105.355 -252.988 102.99 -254.404 101.02C-255.779 99.0616 -258.238 97.6076 -261.783 96.658L-274.765 93.1798L-270.119 90.184L-276.827 115.221ZM-249.89 138.936L-218.823 100.879L-210.91 103L-202.969 151.507L-211.377 149.255L-217.679 105.758L-214.464 106.619L-241.606 141.155L-249.89 138.936ZM-238.243 131.323L-234.39 125.597L-211.022 131.858L-210.548 138.743L-238.243 131.323ZM-200.742 152.104L-199.301 146.726L-162.216 120.087L-162.1 123.365L-190.537 115.746L-188.715 108.946L-153.046 118.503L-154.486 123.881L-191.572 150.519L-191.749 147.225L-162.014 155.192L-163.836 161.992L-200.742 152.104ZM-151.985 136.08L-144.722 123.317L-144.914 128.235C-146.356 127.848 -147.45 127.069 -148.197 125.898C-148.902 124.737 -149.05 123.394 -148.641 121.869C-148.233 120.344 -147.433 119.256 -146.242 118.603C-144.999 117.92 -143.677 117.766 -142.276 118.142C-140.833 118.528 -139.765 119.322 -139.071 120.524C-138.377 121.726 -138.229 123.069 -138.626 124.552C-138.748 125.006 -138.916 125.469 -139.131 125.941C-139.294 126.383 -139.561 126.886 -139.933 127.449C-140.252 127.982 -140.745 128.667 -141.411 129.505L-146.977 137.422L-151.985 136.08ZM-127.189 144.711L-105.676 150.475L-107.448 157.09L-128.961 151.326L-127.189 144.711ZM-131.539 163.423L-107.121 169.965L-108.926 176.703L-141.381 168.008L-129.787 124.734L-98.1975 133.198L-100.003 139.936L-123.556 133.626L-131.539 163.423ZM-99.967 179.104L-88.373 135.83L-68.0961 141.263C-62.9033 142.654 -59.2229 144.744 -57.0549 147.534C-54.8759 150.282 -54.2446 153.366 -55.1611 156.787C-55.7794 159.095 -56.8452 160.93 -58.3584 162.291C-59.8606 163.611 -61.6398 164.482 -63.6961 164.903C-65.7002 165.293 -67.7531 165.207 -69.855 164.644L-68.146 162.717C-65.7144 163.368 -63.6516 164.407 -61.9575 165.832C-60.2524 167.217 -59.0698 168.903 -58.4097 170.891C-57.7085 172.89 -57.6946 175.146 -58.3682 177.66C-59.362 181.369 -61.5567 183.873 -64.9525 185.172C-68.3483 186.471 -72.8487 186.369 -78.4537 184.868L-99.967 179.104ZM-90.241 174.951L-77.2589 178.429C-74.2503 179.236 -71.8099 179.359 -69.9376 178.801C-68.0652 178.242 -66.8365 176.871 -66.2512 174.687C-65.6771 172.544 -66.0611 170.762 -67.4034 169.342C-68.7347 167.881 -70.9046 166.748 -73.9132 165.942L-87.5135 162.298L-85.8407 156.054L-73.8476 159.267C-71.0451 160.018 -68.7696 160.098 -67.0209 159.506C-65.231 158.926 -64.071 157.646 -63.541 155.668C-63 153.649 -63.3594 151.94 -64.6193 150.542C-65.8379 149.156 -67.8485 148.087 -70.651 147.336L-82.0258 144.289L-90.241 174.951ZM-35.8532 196.281L-24.2592 153.007L-6.45515 157.777C-2.62233 158.804 0.488485 160.3 2.87729 162.266C5.30732 164.242 6.95499 166.583 7.82032 169.288C8.68564 171.993 8.69319 174.933 7.84297 178.106C6.99274 181.28 5.51662 183.822 3.4146 185.732C1.32363 187.601 -1.26813 188.784 -4.36067 189.281C-7.40095 189.747 -10.8375 189.467 -14.6703 188.44L-28.0234 184.862L-23.4606 182.176L-27.8166 198.434L-35.8532 196.281ZM-7.53979 203.867L-14.2749 185.233L-5.68198 187.535L1.11497 206.186L-7.53979 203.867ZM-23.6925 183.041L-26.2511 178.248L-13.269 181.726C-9.72468 182.676 -6.86216 182.625 -4.68145 181.575C-2.45952 180.536 -0.984174 178.657 -0.255409 175.937C0.484397 173.175 0.146365 170.81 -1.2695 168.84C-2.64416 166.882 -5.10365 165.428 -8.64798 164.478L-21.6301 161L-16.9845 158.004L-23.6925 183.041ZM3.24436 206.756L34.3115 168.7L42.2245 170.82L50.1655 219.327L41.758 217.075L35.456 173.578L38.6707 174.439L11.5282 208.976L3.24436 206.756ZM14.8914 199.143L18.7445 193.417L42.1123 199.678L42.5866 206.563L14.8914 199.143ZM52.3924 219.924L53.8334 214.546L90.9186 187.908L91.0343 191.185L62.5973 183.566L64.4192 176.766L100.089 186.323L98.6482 191.701L61.563 218.339L61.3854 215.045L91.1207 223.012L89.2988 229.812L52.3924 219.924ZM101.15 203.9L108.412 191.137L108.221 196.055C106.779 195.669 105.684 194.89 104.938 193.718C104.233 192.557 104.085 191.214 104.493 189.69C104.902 188.165 105.702 187.076 106.892 186.423C108.136 185.74 109.458 185.586 110.859 185.962C112.301 186.348 113.37 187.143 114.064 188.344C114.758 189.546 114.906 190.889 114.508 192.373C114.387 192.826 114.219 193.289 114.004 193.761C113.841 194.204 113.574 194.706 113.202 195.269C112.883 195.802 112.39 196.487 111.724 197.325L106.157 205.242L101.15 203.9ZM125.946 212.531L147.459 218.295L145.687 224.91L124.174 219.146L125.946 212.531ZM121.595 231.243L146.014 237.785L144.209 244.524L111.753 235.828L123.347 192.554L154.937 201.018L153.132 207.756L129.579 201.446L121.595 231.243ZM153.168 246.924L164.762 203.65L185.039 209.083C190.231 210.474 193.912 212.564 196.08 215.354C198.259 218.102 198.89 221.187 197.974 224.607C197.355 226.915 196.289 228.75 194.776 230.111C193.274 231.431 191.495 232.302 189.439 232.723C187.434 233.114 185.382 233.027 183.28 232.464L184.989 230.537C187.42 231.188 189.483 232.227 191.177 233.652C192.882 235.037 194.065 236.723 194.725 238.711C195.426 240.71 195.44 242.966 194.766 245.48C193.773 249.189 191.578 251.693 188.182 252.992C184.786 254.291 180.286 254.19 174.681 252.688L153.168 246.924ZM162.894 242.772L175.876 246.25C178.884 247.056 181.325 247.18 183.197 246.621C185.069 246.063 186.298 244.691 186.883 242.507C187.458 240.364 187.074 238.582 185.731 237.163C184.4 235.702 182.23 234.568 179.221 233.762L165.621 230.118L167.294 223.875L179.287 227.088C182.09 227.839 184.365 227.918 186.114 227.327C187.904 226.746 189.064 225.467 189.594 223.488C190.135 221.469 189.775 219.76 188.515 218.363C187.297 216.976 185.286 215.907 182.484 215.157L171.109 212.109L162.894 242.772ZM217.281 264.101L228.875 220.828L246.68 225.598C250.512 226.625 253.623 228.121 256.012 230.086C258.442 232.062 260.09 234.403 260.955 237.108C261.82 239.814 261.828 242.753 260.978 245.927C260.127 249.1 258.651 251.642 256.549 253.552C254.458 255.422 251.867 256.604 248.774 257.101C245.734 257.567 242.297 257.287 238.464 256.26L225.111 252.683L229.674 249.996L225.318 266.255L217.281 264.101ZM245.595 271.687L238.86 253.053L247.453 255.356L254.25 274.006L245.595 271.687ZM229.442 250.862L226.884 246.068L239.866 249.546C243.41 250.496 246.272 250.446 248.453 249.396C250.675 248.356 252.15 246.477 252.879 243.757C253.619 240.996 253.281 238.63 251.865 236.661C250.49 234.702 248.031 233.248 244.487 232.299L231.505 228.82L236.15 225.825L229.442 250.862ZM256.379 274.577L287.446 236.52L295.359 238.64L303.3 287.148L294.893 284.895L288.591 241.398L291.805 242.26L264.663 276.796L256.379 274.577ZM268.026 266.963L271.879 261.237L295.247 267.498L295.721 274.383L268.026 266.963ZM305.527 287.744L306.968 282.366L344.053 255.728L344.169 259.006L315.732 251.387L317.554 244.587L353.224 254.143L351.783 259.522L314.698 286.16L314.52 282.865L344.255 290.832L342.433 297.632L305.527 287.744ZM354.284 271.721L361.547 258.957L361.356 263.875C359.913 263.489 358.819 262.71 358.073 261.538C357.368 260.377 357.22 259.035 357.628 257.51C358.037 255.985 358.836 254.896 360.027 254.243C361.27 253.56 362.592 253.407 363.994 253.782C365.436 254.169 366.504 254.963 367.198 256.165C367.892 257.367 368.04 258.709 367.643 260.193C367.521 260.646 367.353 261.109 367.138 261.582C366.976 262.024 366.708 262.527 366.337 263.09C366.017 263.622 365.525 264.308 364.858 265.145L359.292 273.062L354.284 271.721ZM379.081 280.352L400.594 286.116L398.822 292.73L377.308 286.966L379.081 280.352ZM374.73 299.063L399.149 305.606L397.343 312.344L364.888 303.648L376.482 260.375L408.072 268.838L406.266 275.577L382.713 269.266L374.73 299.063ZM406.302 314.744L417.896 271.47L438.173 276.903C443.366 278.294 447.046 280.385 449.214 283.174C451.393 285.922 452.025 289.007 451.108 292.427C450.49 294.735 449.424 296.57 447.911 297.932C446.409 299.252 444.629 300.122 442.573 300.543C440.569 300.934 438.516 300.848 436.414 300.284L438.123 298.357C440.555 299.009 442.618 300.047 444.312 301.473C446.017 302.857 447.2 304.543 447.86 306.531C448.561 308.53 448.575 310.787 447.901 313.301C446.907 317.01 444.713 319.514 441.317 320.813C437.921 322.111 433.421 322.01 427.816 320.508L406.302 314.744ZM416.028 310.592L429.01 314.07C432.019 314.876 434.459 315 436.332 314.441C438.204 313.883 439.433 312.511 440.018 310.327C440.592 308.184 440.208 306.403 438.866 304.983C437.535 303.522 435.365 302.388 432.356 301.582L418.756 297.939L420.429 291.695L432.422 294.908C435.224 295.659 437.5 295.738 439.248 295.147C441.038 294.566 442.198 293.287 442.728 291.309C443.269 289.289 442.91 287.581 441.65 286.183C440.431 284.796 438.421 283.728 435.618 282.977L424.243 279.929L416.028 310.592ZM470.416 331.922L482.01 288.648L499.814 293.418C503.647 294.445 506.758 295.941 509.147 297.906C511.577 299.882 513.224 302.223 514.09 304.929C514.955 307.634 514.962 310.573 514.112 313.747C513.262 316.92 511.786 319.462 509.684 321.373C507.593 323.242 505.001 324.425 501.909 324.921C498.868 325.388 495.432 325.107 491.599 324.081L478.246 320.503L482.809 317.816L478.453 334.075L470.416 331.922ZM498.73 339.507L491.994 320.874L500.587 323.176L507.384 341.826L498.73 339.507ZM482.577 318.682L480.018 313.888L493 317.367C496.545 318.316 499.407 318.266 501.588 317.216C503.81 316.177 505.285 314.297 506.014 311.577C506.754 308.816 506.416 306.45 505 304.481C503.625 302.522 501.166 301.068 497.621 300.119L484.639 296.641L489.285 293.645L482.577 318.682ZM509.514 342.397L540.581 304.34L548.494 306.46L556.435 354.968L548.027 352.715L541.725 309.219L544.94 310.08L517.798 344.616L509.514 342.397ZM521.161 334.784L525.014 329.058L548.382 335.318L548.856 342.204L521.161 334.784ZM558.662 355.565L560.103 350.186L597.188 323.548L597.304 326.826L568.867 319.207L570.688 312.407L606.358 321.964L604.917 327.342L567.832 353.98L567.655 350.686L597.39 358.652L595.568 365.453L558.662 355.565ZM607.419 339.541L614.682 326.778L614.49 331.696C613.048 331.309 611.954 330.53 611.207 329.358C610.502 328.198 610.354 326.855 610.763 325.33C611.171 323.805 611.971 322.716 613.162 322.064C614.405 321.381 615.727 321.227 617.128 321.602C618.571 321.989 619.639 322.783 620.333 323.985C621.027 325.187 621.175 326.53 620.778 328.013C620.656 328.467 620.488 328.929 620.273 329.402C620.11 329.844 619.843 330.347 619.471 330.91C619.152 331.443 618.659 332.128 617.993 332.965L612.427 340.882L607.419 339.541ZM632.215 348.172L653.728 353.936L651.956 360.551L630.443 354.787L632.215 348.172ZM627.865 366.884L652.283 373.426L650.478 380.164L618.023 371.469L629.617 328.195L661.206 336.659L659.401 343.397L635.848 337.086L627.865 366.884ZM659.437 382.565L671.031 339.291L691.308 344.723C696.501 346.115 700.181 348.205 702.349 350.994C704.528 353.743 705.159 356.827 704.243 360.248C703.625 362.556 702.559 364.39 701.046 365.752C699.543 367.072 697.764 367.943 695.708 368.363C693.704 368.754 691.651 368.668 689.549 368.105L691.258 366.177C693.69 366.829 695.752 367.867 697.446 369.293C699.152 370.677 700.334 372.364 700.994 374.351C701.695 376.35 701.709 378.607 701.036 381.121C700.042 384.83 697.847 387.334 694.451 388.633C691.056 389.932 686.555 389.83 680.95 388.328L659.437 382.565ZM669.163 378.412L682.145 381.89C685.154 382.696 687.594 382.82 689.466 382.262C691.339 381.703 692.567 380.332 693.153 378.147C693.727 376.004 693.343 374.223 692.001 372.803C690.669 371.342 688.499 370.209 685.491 369.403L671.89 365.759L673.563 359.515L685.556 362.728C688.359 363.479 690.634 363.559 692.383 362.967C694.173 362.387 695.333 361.107 695.863 359.129C696.404 357.11 696.045 355.401 694.785 354.003C693.566 352.617 691.555 351.548 688.753 350.797L677.378 347.75L669.163 378.412ZM723.551 399.742L735.145 356.468L752.949 361.238C756.782 362.265 759.892 363.761 762.281 365.726C764.711 367.703 766.359 370.043 767.224 372.749C768.09 375.454 768.097 378.394 767.247 381.567C766.397 384.741 764.921 387.282 762.819 389.193C760.728 391.062 758.136 392.245 755.043 392.742C752.003 393.208 748.566 392.928 744.734 391.901L731.381 388.323L735.943 385.637L731.587 401.895L723.551 399.742ZM751.864 407.328L745.129 388.694L753.722 390.996L760.519 409.647L751.864 407.328ZM735.711 386.502L733.153 381.709L746.135 385.187C749.679 386.136 752.542 386.086 754.723 385.036C756.944 383.997 758.42 382.117 759.149 379.397C759.888 376.636 759.55 374.271 758.134 372.301C756.76 370.343 754.3 368.889 750.756 367.939L737.774 364.461L742.419 361.465L735.711 386.502ZM762.648 410.217L793.715 372.161L801.628 374.281L809.569 422.788L801.162 420.536L794.86 377.039L798.075 377.9L770.932 412.436L762.648 410.217ZM774.295 402.604L778.148 396.878L801.516 403.139L801.991 410.024L774.295 402.604ZM811.796 423.385L813.237 418.007L850.323 391.369L850.438 394.646L822.001 387.027L823.823 380.227L859.493 389.784L858.052 395.162L820.967 421.8L820.789 418.506L850.525 426.473L848.703 433.273L811.796 423.385ZM860.554 407.361L867.816 394.598L867.625 399.516C866.183 399.129 865.088 398.35 864.342 397.179C863.637 396.018 863.489 394.675 863.897 393.15C864.306 391.625 865.106 390.537 866.296 389.884C867.54 389.201 868.862 389.047 870.263 389.423C871.705 389.809 872.774 390.603 873.468 391.805C874.161 393.007 874.31 394.35 873.912 395.834C873.791 396.287 873.623 396.75 873.408 397.222C873.245 397.665 872.978 398.167 872.606 398.73C872.287 399.263 871.794 399.948 871.128 400.786L865.561 408.703L860.554 407.361ZM885.35 415.992L906.863 421.756L905.091 428.371L883.578 422.607L885.35 415.992ZM880.999 434.704L905.418 441.246L903.613 447.984L871.157 439.289L882.751 396.015L914.341 404.479L912.536 411.217L888.982 404.907L880.999 434.704ZM912.572 450.385L924.166 407.111L944.442 412.544C949.635 413.935 953.316 416.025 955.484 418.815C957.663 421.563 958.294 424.647 957.378 428.068C956.759 430.376 955.693 432.211 954.18 433.572C952.678 434.892 950.899 435.763 948.842 436.184C946.838 436.574 944.785 436.488 942.684 435.925L944.393 433.998C946.824 434.649 948.887 435.688 950.581 437.113C952.286 438.498 953.469 440.184 954.129 442.172C954.83 444.171 954.844 446.427 954.17 448.941C953.177 452.65 950.982 455.154 947.586 456.453C944.19 457.752 939.69 457.65 934.085 456.149L912.572 450.385ZM922.298 446.232L935.28 449.711C938.288 450.517 940.729 450.64 942.601 450.082C944.473 449.523 945.702 448.152 946.287 445.968C946.862 443.825 946.477 442.043 945.135 440.624C943.804 439.163 941.634 438.029 938.625 437.223L925.025 433.579L926.698 427.335L938.691 430.549C941.493 431.299 943.769 431.379 945.518 430.787C947.308 430.207 948.468 428.927 948.998 426.949C949.539 424.93 949.179 423.221 947.919 421.824C946.701 420.437 944.69 419.368 941.888 418.617L930.513 415.57L922.298 446.232ZM976.685 467.562L988.279 424.288L1006.08 429.059C1009.92 430.085 1013.03 431.582 1015.42 433.547C1017.85 435.523 1019.49 437.864 1020.36 440.569C1021.22 443.275 1021.23 446.214 1020.38 449.387C1019.53 452.561 1018.06 455.103 1015.95 457.013C1013.86 458.882 1011.27 460.065 1008.18 460.562C1005.14 461.028 1001.7 460.748 997.868 459.721L984.515 456.144L989.078 453.457L984.722 469.715L976.685 467.562ZM1005 475.148L998.264 456.514L1006.86 458.816L1013.65 477.467L1005 475.148ZM988.846 454.322L986.287 449.529L999.27 453.007C1002.81 453.957 1005.68 453.906 1007.86 452.856C1010.08 451.817 1011.55 449.938 1012.28 447.218C1013.02 444.456 1012.68 442.091 1011.27 440.121C1009.89 438.163 1007.43 436.709 1003.89 435.759L990.908 432.281L995.554 429.285L988.846 454.322ZM1015.78 478.037L1046.85 439.981L1054.76 442.101L1062.7 490.609L1054.3 488.356L1047.99 444.859L1051.21 445.721L1024.07 480.257L1015.78 478.037ZM1027.43 470.424L1031.28 464.698L1054.65 470.959L1055.13 477.844L1027.43 470.424ZM1064.93 491.205L1066.37 485.827L1103.46 459.189L1103.57 462.466L1075.14 454.848L1076.96 448.047L1112.63 457.604L1111.19 462.982L1074.1 489.62L1073.92 486.326L1103.66 494.293L1101.84 501.093L1064.93 491.205ZM1113.69 475.181L1120.95 462.418L1120.76 467.336C1119.32 466.95 1118.22 466.171 1117.48 464.999C1116.77 463.838 1116.62 462.495 1117.03 460.971C1117.44 459.446 1118.24 458.357 1119.43 457.704C1120.67 457.021 1122 456.868 1123.4 457.243C1124.84 457.629 1125.91 458.424 1126.6 459.625C1127.3 460.827 1127.44 462.17 1127.05 463.654C1126.93 464.107 1126.76 464.57 1126.54 465.043C1126.38 465.485 1126.11 465.987 1125.74 466.55C1125.42 467.083 1124.93 467.768 1124.26 468.606L1118.7 476.523L1113.69 475.181ZM1138.48 483.813L1160 489.576L1158.23 496.191L1136.71 490.427L1138.48 483.813ZM1134.13 502.524L1158.55 509.066L1156.75 515.805L1124.29 507.109L1135.89 463.835L1167.48 472.299L1165.67 479.037L1142.12 472.727L1134.13 502.524ZM1165.71 518.205L1177.3 474.931L1197.58 480.364C1202.77 481.755 1206.45 483.846 1208.62 486.635C1210.8 489.383 1211.43 492.468 1210.51 495.888C1209.89 498.196 1208.83 500.031 1207.31 501.392C1205.81 502.713 1204.03 503.583 1201.98 504.004C1199.97 504.395 1197.92 504.308 1195.82 503.745L1197.53 501.818C1199.96 502.469 1202.02 503.508 1203.72 504.934C1205.42 506.318 1206.6 508.004 1207.26 509.992C1207.96 511.991 1207.98 514.247 1207.31 516.761C1206.31 520.471 1204.12 522.975 1200.72 524.273C1197.32 525.572 1192.82 525.471 1187.22 523.969L1165.71 518.205ZM1175.43 514.053L1188.41 517.531C1191.42 518.337 1193.86 518.461 1195.74 517.902C1197.61 517.344 1198.84 515.972 1199.42 513.788C1200 511.645 1199.61 509.864 1198.27 508.444C1196.94 506.983 1194.77 505.849 1191.76 505.043L1178.16 501.399L1179.83 495.156L1191.83 498.369C1194.63 499.12 1196.9 499.199 1198.65 498.608C1200.44 498.027 1201.6 496.748 1202.13 494.77C1202.67 492.75 1202.31 491.042 1201.05 489.644C1199.84 488.257 1197.82 487.188 1195.02 486.438L1183.65 483.39L1175.43 514.053ZM1229.82 535.383L1241.41 492.109L1259.22 496.879C1263.05 497.906 1266.16 499.402 1268.55 501.367C1270.98 503.343 1272.63 505.684 1273.49 508.389C1274.36 511.095 1274.37 514.034 1273.52 517.208C1272.67 520.381 1271.19 522.923 1269.09 524.833C1267 526.703 1264.41 527.886 1261.31 528.382C1258.27 528.849 1254.84 528.568 1251 527.541L1237.65 523.964L1242.21 521.277L1237.86 537.536L1229.82 535.383ZM1258.13 542.968L1251.4 524.335L1259.99 526.637L1266.79 545.287L1258.13 542.968ZM1241.98 522.143L1239.42 517.349L1252.4 520.827C1255.95 521.777 1258.81 521.727 1260.99 520.677C1263.21 519.638 1264.69 517.758 1265.42 515.038C1266.16 512.277 1265.82 509.911 1264.4 507.942C1263.03 505.983 1260.57 504.529 1257.03 503.58L1244.04 500.101L1248.69 497.106L1241.98 522.143ZM1268.92 545.858L1299.98 507.801L1307.9 509.921L1315.84 558.429L1307.43 556.176L1301.13 512.68L1304.34 513.541L1277.2 548.077L1268.92 545.858ZM1280.56 538.244L1284.42 532.519L1307.79 538.779L1308.26 545.665L1280.56 538.244ZM1318.07 559.025L1319.51 553.647L1356.59 527.009L1356.71 530.287L1328.27 522.668L1330.09 515.868L1365.76 525.424L1364.32 530.803L1327.24 557.441L1327.06 554.147L1356.79 562.113L1354.97 568.913L1318.07 559.025ZM1366.82 543.002L1374.09 530.238L1373.89 535.156C1372.45 534.77 1371.36 533.991 1370.61 532.819C1369.91 531.659 1369.76 530.316 1370.17 528.791C1370.58 527.266 1371.37 526.177 1372.57 525.524C1373.81 524.842 1375.13 524.688 1376.53 525.063C1377.97 525.45 1379.04 526.244 1379.74 527.446C1380.43 528.648 1380.58 529.99 1380.18 531.474C1380.06 531.927 1379.89 532.39 1379.68 532.863C1379.51 533.305 1379.25 533.808 1378.88 534.371C1378.56 534.904 1378.06 535.589 1377.4 536.426L1371.83 544.343L1366.82 543.002ZM1391.62 551.633L1413.13 557.397L1411.36 564.011L1389.85 558.248L1391.62 551.633ZM1387.27 570.344L1411.69 576.887L1409.88 583.625L1377.43 574.93L1389.02 531.656L1420.61 540.119L1418.81 546.858L1395.25 540.547L1387.27 570.344ZM1418.84 586.025L1430.43 542.752L1450.71 548.184C1455.9 549.575 1459.59 551.666 1461.75 554.455C1463.93 557.203 1464.56 560.288 1463.65 563.709C1463.03 566.017 1461.96 567.851 1460.45 569.213C1458.95 570.533 1457.17 571.403 1455.11 571.824C1453.11 572.215 1451.05 572.129 1448.95 571.566L1450.66 569.638C1453.09 570.29 1455.16 571.328 1456.85 572.754C1458.56 574.138 1459.74 575.824 1460.4 577.812C1461.1 579.811 1461.11 582.068 1460.44 584.582C1459.45 588.291 1457.25 590.795 1453.86 592.094C1450.46 593.392 1445.96 593.291 1440.35 591.789L1418.84 586.025ZM1428.57 581.873L1441.55 585.351C1444.56 586.157 1447 586.281 1448.87 585.722C1450.74 585.164 1451.97 583.793 1452.56 581.608C1453.13 579.465 1452.75 577.684 1451.4 576.264C1450.07 574.803 1447.9 573.67 1444.89 572.864L1431.29 569.22L1432.97 562.976L1444.96 566.189C1447.76 566.94 1450.04 567.02 1451.79 566.428C1453.58 565.847 1454.74 564.568 1455.27 562.59C1455.81 560.57 1455.45 558.862 1454.19 557.464C1452.97 556.077 1450.96 555.009 1448.16 554.258L1436.78 551.21L1428.57 581.873ZM1482.95 603.203L1494.55 559.929L1512.35 564.699C1516.19 565.726 1519.3 567.222 1521.69 569.187C1524.12 571.163 1525.76 573.504 1526.63 576.21C1527.49 578.915 1527.5 581.855 1526.65 585.028C1525.8 588.201 1524.32 590.743 1522.22 592.654C1520.13 594.523 1517.54 595.706 1514.45 596.202C1511.41 596.669 1507.97 596.389 1504.14 595.362L1490.78 591.784L1495.35 589.097L1490.99 605.356L1482.95 603.203ZM1511.27 610.789L1504.53 592.155L1513.13 594.457L1519.92 613.107L1511.27 610.789ZM1495.12 589.963L1492.56 585.169L1505.54 588.648C1509.08 589.597 1511.95 589.547 1514.13 588.497C1516.35 587.458 1517.82 585.578 1518.55 582.858C1519.29 580.097 1518.95 577.732 1517.54 575.762C1516.16 573.804 1513.7 572.35 1510.16 571.4L1497.18 567.922L1501.82 564.926L1495.12 589.963ZM1522.05 613.678L1553.12 575.621L1561.03 577.741L1568.97 626.249L1560.57 623.997L1554.26 580.5L1557.48 581.361L1530.34 615.897L1522.05 613.678ZM1533.7 606.065L1537.55 600.339L1560.92 606.6L1561.39 613.485L1533.7 606.065ZM1571.2 626.846L1572.64 621.467L1609.73 594.829L1609.84 598.107L1581.41 590.488L1583.23 583.688L1618.9 593.245L1617.46 598.623L1580.37 625.261L1580.19 621.967L1609.93 629.934L1608.11 636.734L1571.2 626.846ZM1619.96 610.822L1627.22 598.059L1627.03 602.977C1625.59 602.59 1624.49 601.811 1623.75 600.639C1623.04 599.479 1622.89 598.136 1623.3 596.611C1623.71 595.086 1624.51 593.997 1625.7 593.345C1626.94 592.662 1628.27 592.508 1629.67 592.884C1631.11 593.27 1632.18 594.064 1632.87 595.266C1633.57 596.468 1633.71 597.811 1633.32 599.294C1633.19 599.748 1633.03 600.211 1632.81 600.683C1632.65 601.125 1632.38 601.628 1632.01 602.191C1631.69 602.724 1631.2 603.409 1630.53 604.246L1624.97 612.164L1619.96 610.822ZM1644.75 619.453L1666.27 625.217L1664.49 631.832L1642.98 626.068L1644.75 619.453ZM1640.4 638.165L1664.82 644.707L1663.02 651.445L1630.56 642.75L1642.16 599.476L1673.75 607.94L1671.94 614.678L1648.39 608.368L1640.4 638.165ZM1671.98 653.846L1683.57 610.572L1703.85 616.004C1709.04 617.396 1712.72 619.486 1714.89 622.276C1717.07 625.024 1717.7 628.108 1716.78 631.529C1716.16 633.837 1715.1 635.671 1713.58 637.033C1712.08 638.353 1710.3 639.224 1708.25 639.645C1706.24 640.035 1704.19 639.949 1702.09 639.386L1703.8 637.458C1706.23 638.11 1708.29 639.148 1709.99 640.574C1711.69 641.959 1712.87 643.645 1713.53 645.633C1714.23 647.632 1714.25 649.888 1713.57 652.402C1712.58 656.111 1710.39 658.615 1706.99 659.914C1703.59 661.213 1699.09 661.111 1693.49 659.609L1671.98 653.846ZM1681.7 649.693L1694.68 653.171C1697.69 653.977 1700.13 654.101 1702.01 653.543C1703.88 652.984 1705.11 651.613 1705.69 649.429C1706.27 647.285 1705.88 645.504 1704.54 644.084C1703.21 642.623 1701.04 641.49 1698.03 640.684L1684.43 637.04L1686.1 630.796L1698.09 634.009C1700.9 634.76 1703.17 634.84 1704.92 634.248C1706.71 633.668 1707.87 632.388 1708.4 630.41C1708.94 628.391 1708.58 626.682 1707.32 625.284C1706.1 623.898 1704.09 622.829 1701.29 622.078L1689.92 619.031L1681.7 649.693ZM1736.09 671.023L1747.68 627.749L1765.49 632.519C1769.32 633.546 1772.43 635.042 1774.82 637.007C1777.25 638.984 1778.9 641.325 1779.76 644.03C1780.63 646.735 1780.64 649.675 1779.79 652.848C1778.94 656.022 1777.46 658.564 1775.36 660.474C1773.27 662.343 1770.67 663.526 1767.58 664.023C1764.54 664.489 1761.11 664.209 1757.27 663.182L1743.92 659.604L1748.48 656.918L1744.13 673.176L1736.09 671.023ZM1764.4 678.609L1757.67 659.975L1766.26 662.277L1773.06 680.928L1764.4 678.609ZM1748.25 657.783L1745.69 652.99L1758.67 656.468C1762.22 657.417 1765.08 657.367 1767.26 656.317C1769.48 655.278 1770.96 653.399 1771.69 650.679C1772.43 647.917 1772.09 645.552 1770.67 643.582C1769.3 641.624 1766.84 640.17 1763.29 639.22L1750.31 635.742L1754.96 632.746L1748.25 657.783ZM1775.19 681.498L1806.25 643.442L1814.17 645.562L1822.11 694.069L1813.7 691.817L1807.4 648.32L1810.61 649.181L1783.47 683.718L1775.19 681.498ZM1786.83 673.885L1790.69 668.159L1814.05 674.42L1814.53 681.305L1786.83 673.885ZM1824.34 694.666L1825.78 689.288L1862.86 662.65L1862.98 665.927L1834.54 658.308L1836.36 651.508L1872.03 661.065L1870.59 666.443L1833.51 693.081L1833.33 689.787L1863.06 697.754L1861.24 704.554L1824.34 694.666ZM1873.09 678.642L1880.35 665.879L1880.16 670.797C1878.72 670.411 1877.63 669.631 1876.88 668.46C1876.18 667.299 1876.03 665.956 1876.44 664.431C1876.84 662.907 1877.64 661.818 1878.84 661.165C1880.08 660.482 1881.4 660.328 1882.8 660.704C1884.24 661.09 1885.31 661.884 1886.01 663.086C1886.7 664.288 1886.85 665.631 1886.45 667.115C1886.33 667.568 1886.16 668.031 1885.95 668.503C1885.78 668.946 1885.52 669.448 1885.14 670.011C1884.83 670.544 1884.33 671.229 1883.67 672.067L1878.1 679.984L1873.09 678.642ZM1897.89 687.273L1919.4 693.037L1917.63 699.652L1896.12 693.888L1897.89 687.273ZM1893.54 705.985L1917.96 712.527L1916.15 719.266L1883.7 710.57L1895.29 667.296L1926.88 675.76L1925.07 682.498L1901.52 676.188L1893.54 705.985ZM1925.11 721.666L1936.7 678.392L1956.98 683.825C1962.17 685.216 1965.85 687.306 1968.02 690.096C1970.2 692.844 1970.83 695.928 1969.92 699.349C1969.3 701.657 1968.23 703.492 1966.72 704.853C1965.22 706.173 1963.44 707.044 1961.38 707.465C1959.38 707.855 1957.32 707.769 1955.22 707.206L1956.93 705.279C1959.36 705.93 1961.43 706.969 1963.12 708.394C1964.82 709.779 1966.01 711.465 1966.67 713.453C1967.37 715.452 1967.38 717.708 1966.71 720.222C1965.72 723.931 1963.52 726.435 1960.12 727.734C1956.73 729.033 1952.23 728.931 1946.62 727.43L1925.11 721.666ZM1934.84 717.513L1947.82 720.992C1950.83 721.798 1953.27 721.922 1955.14 721.363C1957.01 720.805 1958.24 719.433 1958.83 717.249C1959.4 715.106 1959.02 713.324 1957.67 711.905C1956.34 710.444 1954.17 709.31 1951.16 708.504L1937.56 704.86L1939.24 698.616L1951.23 701.83C1954.03 702.581 1956.31 702.66 1958.06 702.069C1959.85 701.488 1961.01 700.209 1961.54 698.23C1962.08 696.211 1961.72 694.502 1960.46 693.105C1959.24 691.718 1957.23 690.649 1954.43 689.898L1943.05 686.851L1934.84 717.513Z" fill="#141414"/>
</g>
<g clip-path="url(#clip2_1239_47)">
<rect width="2128.16" height="95.4431" transform="translate(-35 651.81) rotate(-15)" fill="#5AC7A5"/>
<path d="M-274.763 794.341L-286.36 751.068L-268.556 746.297C-264.723 745.27 -261.281 745.01 -258.23 745.518C-255.137 746.014 -252.54 747.217 -250.438 749.128C-248.335 751.038 -246.859 753.58 -246.009 756.753C-245.158 759.927 -245.166 762.866 -246.031 765.572C-246.907 768.236 -248.56 770.556 -250.99 772.532C-253.39 774.457 -256.506 775.932 -260.339 776.959L-273.692 780.537L-271.084 775.929L-266.727 792.188L-274.763 794.341ZM-246.45 786.754L-261.6 773.984L-253.007 771.682L-237.796 784.435L-246.45 786.754ZM-270.852 776.795L-275.464 773.923L-262.482 770.444C-258.938 769.494 -256.484 768.019 -255.121 766.02C-253.716 764.009 -253.378 761.643 -254.107 758.923C-254.847 756.162 -256.322 754.283 -258.533 753.285C-260.703 752.276 -263.56 752.247 -267.104 753.197L-280.086 756.675L-277.561 751.758L-270.852 776.795ZM-235.666 783.864L-227.79 735.373L-219.877 733.252L-188.746 771.291L-197.153 773.544L-224.359 739.025L-221.145 738.164L-227.383 781.644L-235.666 783.864ZM-229.386 771.447L-228.912 764.562L-205.545 758.3L-201.691 764.026L-229.386 771.447ZM-186.519 770.694L-187.96 765.316L-169.162 723.704L-167.423 726.484L-195.86 734.105L-197.682 727.305L-162.013 717.746L-160.572 723.124L-179.369 764.736L-181.17 761.972L-151.435 754.004L-149.613 760.804L-186.519 770.694ZM-152.306 732.438L-152.398 717.753L-150.104 722.108C-151.547 722.495 -152.884 722.367 -154.116 721.726C-155.307 721.073 -156.107 719.984 -156.515 718.459C-156.924 716.935 -156.776 715.592 -156.071 714.431C-155.336 713.218 -154.268 712.424 -152.867 712.048C-151.424 711.662 -150.102 711.816 -148.9 712.509C-147.698 713.203 -146.898 714.292 -146.501 715.776C-146.379 716.229 -146.294 716.714 -146.243 717.231C-146.163 717.695 -146.143 718.264 -146.184 718.937C-146.194 719.558 -146.278 720.398 -146.436 721.457L-147.298 731.096L-152.306 732.438ZM-126.516 727.515L-105.003 721.75L-103.231 728.364L-124.744 734.129L-126.516 727.515ZM-120.928 745.895L-96.5097 739.351L-94.704 746.09L-127.159 754.787L-138.755 711.513L-107.166 703.048L-105.36 709.787L-128.913 716.098L-120.928 745.895ZM-85.7451 743.689L-97.3413 700.416L-77.0647 694.982C-71.8719 693.59 -67.6394 693.56 -64.3672 694.892C-61.106 696.183 -59.0171 698.538 -58.1004 701.959C-57.482 704.267 -57.4876 706.389 -58.1174 708.324C-58.7582 710.219 -59.8638 711.862 -61.4342 713.255C-62.9744 714.595 -64.7954 715.547 -66.8972 716.11L-66.3809 713.587C-63.9493 712.935 -61.6436 712.803 -59.4636 713.191C-57.2947 713.537 -55.4275 714.406 -53.862 715.797C-52.2552 717.178 -51.115 719.125 -50.4413 721.639C-49.4473 725.348 -50.0961 728.614 -52.3876 731.437C-54.679 734.259 -58.6272 736.422 -64.2321 737.924L-85.7451 743.689ZM-79.3983 735.23L-66.4164 731.751C-63.4079 730.945 -61.2325 729.832 -59.8903 728.412C-58.548 726.992 -58.1696 725.19 -58.7549 723.006C-59.3292 720.863 -60.5525 719.512 -62.4249 718.953C-64.3083 718.354 -66.7542 718.457 -69.7627 719.263L-83.3629 722.908L-85.036 716.664L-73.0432 713.45C-70.2407 712.699 -68.2302 711.631 -67.0116 710.244C-65.7518 708.846 -65.387 707.158 -65.9171 705.18C-66.4582 703.161 -67.6238 701.861 -69.4137 701.28C-71.1624 700.689 -73.438 700.768 -76.2404 701.519L-87.6151 704.567L-79.3983 735.23ZM-21.6322 726.508L-33.2284 683.235L-15.4246 678.464C-11.5918 677.437 -8.14973 677.177 -5.09839 677.684C-2.00582 678.181 0.591515 679.384 2.69363 681.294C4.79575 683.205 6.272 685.747 7.12238 688.92C7.97277 692.093 7.96537 695.033 7.10019 697.738C6.22396 700.403 4.57088 702.723 2.14096 704.699C-0.258794 706.623 -3.37505 708.099 -7.20782 709.126L-20.5607 712.704L-17.9526 708.096L-13.5957 724.354L-21.6322 726.508ZM6.68085 718.921L-8.46885 706.151L0.123962 703.848L15.3355 716.602L6.68085 718.921ZM-17.7207 708.962L-22.3333 706.09L-9.3513 702.611C-5.80702 701.661 -3.35312 700.186 -1.98961 698.186C-0.584886 696.176 -0.246976 693.81 -0.97588 691.09C-1.71583 688.329 -3.19127 686.449 -5.40221 685.452C-7.57193 684.443 -10.4289 684.413 -13.9732 685.363L-26.9552 688.842L-24.4299 683.925L-17.7207 708.962ZM17.4648 716.031L25.3416 667.539L33.2544 665.419L64.3853 703.457L55.978 705.71L28.7719 671.192L31.9865 670.331L25.7486 713.811L17.4648 716.031ZM23.7449 703.614L24.2188 696.729L47.5863 690.467L51.4397 696.193L23.7449 703.614ZM66.6123 702.861L65.171 697.482L83.9687 655.87L85.7077 658.651L57.2711 666.271L55.4488 659.471L91.1183 649.913L92.5595 655.291L73.7618 696.903L71.961 694.139L101.696 686.171L103.518 692.971L66.6123 702.861ZM100.826 664.605L100.733 649.92L103.027 654.275C101.584 654.662 100.247 654.534 99.015 653.892C97.8241 653.24 97.0244 652.151 96.6157 650.626C96.2071 649.101 96.3553 647.758 97.0602 646.598C97.7953 645.385 98.8634 644.591 100.265 644.215C101.707 643.829 103.029 643.982 104.231 644.676C105.433 645.37 106.233 646.459 106.63 647.942C106.752 648.396 106.838 648.881 106.888 649.397C106.968 649.862 106.988 650.431 106.948 651.104C106.937 651.725 106.853 652.565 106.695 653.623L105.833 663.263L100.826 664.605ZM126.615 659.682L148.128 653.917L149.901 660.531L128.388 666.296L126.615 659.682ZM132.203 678.062L156.622 671.518L158.427 678.256L125.972 686.953L114.376 643.68L145.966 635.215L147.771 641.953L124.218 648.265L132.203 678.062ZM167.386 675.855L155.79 632.582L176.066 627.149C181.259 625.757 185.492 625.727 188.764 627.059C192.025 628.349 194.114 630.705 195.031 634.126C195.649 636.434 195.644 638.555 195.014 640.491C194.373 642.385 193.267 644.029 191.697 645.422C190.157 646.762 188.336 647.714 186.234 648.277L186.75 645.753C189.182 645.102 191.488 644.97 193.668 645.357C195.836 645.704 197.704 646.573 199.269 647.964C200.876 649.345 202.016 651.292 202.69 653.806C203.684 657.515 203.035 660.781 200.744 663.604C198.452 666.426 194.504 668.589 188.899 670.091L167.386 675.855ZM173.733 667.396L186.715 663.918C189.723 663.111 191.899 661.998 193.241 660.578C194.583 659.159 194.962 657.357 194.376 655.172C193.802 653.029 192.579 651.679 190.706 651.12C188.823 650.521 186.377 650.624 183.368 651.43L169.768 655.075L168.095 648.831L180.088 645.617C182.89 644.866 184.901 643.797 186.12 642.411C187.379 641.013 187.744 639.325 187.214 637.347C186.673 635.327 185.507 634.027 183.718 633.447C181.969 632.855 179.693 632.935 176.891 633.686L165.516 636.734L173.733 667.396ZM231.499 658.675L219.903 615.402L237.707 610.631C241.539 609.603 244.981 609.344 248.033 609.851C251.125 610.348 253.723 611.551 255.825 613.461C257.927 615.372 259.403 617.913 260.254 621.087C261.104 624.26 261.097 627.2 260.231 629.905C259.355 632.569 257.702 634.89 255.272 636.866C252.872 638.79 249.756 640.266 245.923 641.293L232.57 644.871L235.179 640.263L239.535 656.521L231.499 658.675ZM259.812 651.087L244.662 638.318L253.255 636.015L268.467 648.768L259.812 651.087ZM235.411 641.128L230.798 638.256L243.78 634.777C247.324 633.828 249.778 632.353 251.142 630.353C252.546 628.342 252.884 625.977 252.155 623.257C251.415 620.496 249.94 618.616 247.729 617.618C245.559 616.61 242.702 616.58 239.158 617.53L226.176 621.009L228.701 616.092L235.411 641.128ZM270.596 648.198L278.473 599.706L286.386 597.586L317.517 635.624L309.109 637.877L281.903 603.359L285.118 602.497L278.88 645.978L270.596 648.198ZM276.876 635.781L277.35 628.896L300.718 622.634L304.571 628.359L276.876 635.781ZM319.743 635.027L318.302 629.649L337.1 588.037L338.839 590.818L310.402 598.438L308.58 591.638L344.249 582.08L345.691 587.458L326.893 629.07L325.092 626.306L354.827 618.337L356.649 625.137L319.743 635.027ZM353.957 596.772L353.865 582.087L356.158 586.442C354.715 586.828 353.378 586.701 352.146 586.059C350.955 585.406 350.156 584.318 349.747 582.793C349.338 581.268 349.486 579.925 350.191 578.765C350.926 577.552 351.995 576.757 353.396 576.382C354.838 575.995 356.16 576.149 357.362 576.843C358.564 577.537 359.364 578.626 359.762 580.109C359.883 580.563 359.969 581.048 360.019 581.564C360.099 582.029 360.119 582.597 360.079 583.271C360.069 583.892 359.984 584.732 359.826 585.79L358.964 595.43L353.957 596.772ZM379.746 591.848L401.259 586.083L403.032 592.698L381.519 598.463L379.746 591.848ZM385.334 610.228L409.753 603.685L411.558 610.423L379.104 619.12L367.507 575.847L399.097 567.382L400.902 574.12L377.349 580.432L385.334 610.228ZM420.517 608.022L408.921 564.749L429.198 559.315C434.39 557.924 438.623 557.894 441.895 559.226C445.156 560.516 447.245 562.872 448.162 566.292C448.78 568.6 448.775 570.722 448.145 572.658C447.504 574.552 446.399 576.196 444.828 577.588C443.288 578.929 441.467 579.88 439.365 580.444L439.881 577.92C442.313 577.268 444.619 577.136 446.799 577.524C448.968 577.87 450.835 578.739 452.4 580.131C454.007 581.511 455.147 583.459 455.821 585.973C456.815 589.682 456.166 592.948 453.875 595.77C451.583 598.593 447.635 600.755 442.03 602.257L420.517 608.022ZM426.864 599.563L439.846 596.084C442.854 595.278 445.03 594.165 446.372 592.745C447.714 591.325 448.093 589.523 447.507 587.339C446.933 585.196 445.71 583.845 443.837 583.287C441.954 582.687 439.508 582.791 436.5 583.597L422.9 587.241L421.226 580.998L433.219 577.784C436.022 577.033 438.032 575.964 439.251 574.577C440.511 573.18 440.875 571.492 440.345 569.513C439.804 567.494 438.639 566.194 436.849 565.614C435.1 565.022 432.824 565.102 430.022 565.853L418.647 568.901L426.864 599.563ZM484.63 590.841L473.034 547.568L490.838 542.797C494.671 541.77 498.113 541.51 501.164 542.018C504.257 542.514 506.854 543.718 508.956 545.628C511.058 547.538 512.534 550.08 513.385 553.254C514.235 556.427 514.228 559.366 513.363 562.072C512.486 564.736 510.833 567.056 508.403 569.033C506.004 570.957 502.887 572.432 499.055 573.459L485.702 577.038L488.31 572.43L492.667 588.688L484.63 590.841ZM512.943 583.254L497.794 570.484L506.386 568.182L521.598 580.935L512.943 583.254ZM488.542 573.295L483.929 570.423L496.911 566.944C500.455 565.994 502.909 564.52 504.273 562.52C505.677 560.509 506.015 558.144 505.286 555.424C504.547 552.662 503.071 550.783 500.86 549.785C498.69 548.776 495.833 548.747 492.289 549.697L479.307 553.176L481.832 548.258L488.542 573.295ZM523.727 580.364L531.604 531.873L539.517 529.752L570.648 567.791L562.24 570.044L535.034 535.525L538.249 534.664L532.011 578.145L523.727 580.364ZM530.007 567.948L530.481 561.062L553.849 554.8L557.702 560.526L530.007 567.948ZM572.875 567.194L571.433 561.816L590.231 520.204L591.97 522.985L563.533 530.605L561.711 523.805L597.381 514.246L598.822 519.625L580.024 561.236L578.223 558.472L607.958 550.504L609.78 557.304L572.875 567.194ZM607.088 528.938L606.996 514.254L609.289 518.609C607.847 518.995 606.509 518.868 605.277 518.226C604.086 517.573 603.287 516.484 602.878 514.96C602.469 513.435 602.618 512.092 603.323 510.931C604.058 509.718 605.126 508.924 606.527 508.549C607.969 508.162 609.292 508.316 610.494 509.01C611.695 509.704 612.495 510.792 612.893 512.276C613.014 512.729 613.1 513.214 613.15 513.731C613.23 514.195 613.25 514.764 613.21 515.438C613.2 516.059 613.116 516.898 612.957 517.957L612.095 527.597L607.088 528.938ZM632.877 524.015L654.39 518.25L656.163 524.865L634.65 530.63L632.877 524.015ZM638.465 542.395L662.884 535.852L664.69 542.59L632.235 551.287L620.639 508.014L652.228 499.549L654.034 506.287L630.481 512.598L638.465 542.395ZM673.648 540.189L662.052 496.916L682.329 491.482C687.522 490.091 691.754 490.061 695.026 491.392C698.288 492.683 700.376 495.039 701.293 498.459C701.912 500.767 701.906 502.889 701.276 504.824C700.635 506.719 699.53 508.362 697.959 509.755C696.419 511.095 694.598 512.047 692.496 512.61L693.013 510.087C695.444 509.435 697.75 509.303 699.93 509.691C702.099 510.037 703.966 510.906 705.532 512.298C707.138 513.678 708.279 515.625 708.952 518.139C709.946 521.848 709.297 525.114 707.006 527.937C704.715 530.76 700.766 532.922 695.161 534.424L673.648 540.189ZM679.995 531.73L692.977 528.251C695.986 527.445 698.161 526.332 699.503 524.912C700.846 523.492 701.224 521.69 700.639 519.506C700.064 517.363 698.841 516.012 696.969 515.454C695.085 514.854 692.639 514.957 689.631 515.764L676.031 519.408L674.358 513.164L686.35 509.951C689.153 509.2 691.163 508.131 692.382 506.744C693.642 505.346 694.007 503.658 693.476 501.68C692.935 499.661 691.77 498.361 689.98 497.78C688.231 497.189 685.956 497.269 683.153 498.02L671.778 501.068L679.995 531.73ZM737.761 523.008L726.165 479.735L743.969 474.964C747.802 473.937 751.244 473.677 754.295 474.185C757.388 474.681 759.985 475.884 762.087 477.795C764.189 479.705 765.666 482.247 766.516 485.42C767.366 488.594 767.359 491.533 766.494 494.239C765.618 496.903 763.964 499.223 761.535 501.199C759.135 503.124 756.018 504.599 752.186 505.626L738.833 509.204L741.441 504.596L745.798 520.855L737.761 523.008ZM766.074 515.421L750.925 502.651L759.518 500.349L774.729 513.102L766.074 515.421ZM741.673 505.462L737.06 502.59L750.042 499.111C753.587 498.161 756.04 496.686 757.404 494.687C758.809 492.676 759.147 490.31 758.418 487.59C757.678 484.829 756.202 482.95 753.991 481.952C751.822 480.943 748.965 480.914 745.42 481.864L732.438 485.342L734.964 480.425L741.673 505.462ZM776.858 512.531L784.735 464.04L792.648 461.919L823.779 499.958L815.372 502.211L788.165 467.692L791.38 466.831L785.142 510.311L776.858 512.531ZM783.138 500.114L783.612 493.229L806.98 486.967L810.833 492.693L783.138 500.114ZM826.006 499.361L824.565 493.983L843.362 452.371L845.101 455.151L816.665 462.772L814.842 455.972L850.512 446.413L851.953 451.791L833.155 493.403L831.355 490.639L861.089 482.671L862.912 489.471L826.006 499.361ZM860.219 461.105L860.127 446.42L862.42 450.775C860.978 451.162 859.641 451.034 858.409 450.393C857.218 449.74 856.418 448.651 856.009 447.126C855.601 445.602 855.749 444.259 856.454 443.098C857.189 441.885 858.257 441.091 859.658 440.715C861.101 440.329 862.423 440.483 863.625 441.176C864.827 441.87 865.626 442.959 866.024 444.443C866.145 444.896 866.231 445.381 866.281 445.898C866.362 446.362 866.382 446.931 866.341 447.604C866.331 448.225 866.247 449.065 866.089 450.124L865.226 459.763L860.219 461.105ZM886.009 456.182L907.522 450.417L909.294 457.031L887.781 462.796L886.009 456.182ZM891.597 474.562L916.015 468.018L917.821 474.757L885.366 483.454L873.77 440.18L905.359 431.715L907.165 438.454L883.612 444.765L891.597 474.562ZM926.78 472.356L915.183 429.083L935.46 423.649C940.653 422.257 944.885 422.227 948.158 423.559C951.419 424.85 953.508 427.205 954.424 430.626C955.043 432.934 955.037 435.056 954.407 436.991C953.767 438.886 952.661 440.529 951.091 441.922C949.55 443.262 947.729 444.214 945.627 444.777L946.144 442.254C948.575 441.602 950.881 441.47 953.061 441.858C955.23 442.204 957.097 443.073 958.663 444.464C960.27 445.845 961.41 447.792 962.083 450.306C963.077 454.015 962.429 457.281 960.137 460.104C957.846 462.926 953.898 465.089 948.293 466.591L926.78 472.356ZM933.126 463.897L946.108 460.418C949.117 459.612 951.292 458.499 952.634 457.079C953.977 455.659 954.355 453.857 953.77 451.673C953.196 449.53 951.972 448.179 950.1 447.62C948.216 447.021 945.771 447.124 942.762 447.93L929.162 451.575L927.489 445.331L939.482 442.117C942.284 441.366 944.295 440.298 945.513 438.911C946.773 437.513 947.138 435.825 946.608 433.847C946.067 431.828 944.901 430.528 943.111 429.947C941.362 429.356 939.087 429.435 936.284 430.186L924.91 433.235L933.126 463.897ZM990.893 455.175L979.296 411.902L997.1 407.131C1000.93 406.104 1004.38 405.844 1007.43 406.351C1010.52 406.848 1013.12 408.051 1015.22 409.961C1017.32 411.872 1018.8 414.414 1019.65 417.587C1020.5 420.76 1020.49 423.7 1019.62 426.405C1018.75 429.07 1017.1 431.39 1014.67 433.366C1012.27 435.29 1009.15 436.766 1005.32 437.793L991.964 441.371L994.572 436.763L998.929 453.021L990.893 455.175ZM1019.21 447.588L1004.06 434.818L1012.65 432.515L1027.86 445.269L1019.21 447.588ZM994.804 437.629L990.191 434.757L1003.17 431.278C1006.72 430.328 1009.17 428.853 1010.54 426.853C1011.94 424.843 1012.28 422.477 1011.55 419.757C1010.81 416.996 1009.33 415.116 1007.12 414.119C1004.95 413.11 1002.1 413.08 998.552 414.03L985.57 417.509L988.095 412.592L994.804 437.629ZM1029.99 444.698L1037.87 396.206L1045.78 394.086L1076.91 432.124L1068.5 434.377L1041.3 399.859L1044.51 398.998L1038.27 442.478L1029.99 444.698ZM1036.27 432.281L1036.74 425.396L1060.11 419.134L1063.96 424.86L1036.27 432.281ZM1079.14 431.528L1077.7 426.149L1096.49 384.537L1098.23 387.318L1069.8 394.938L1067.97 388.138L1103.64 378.58L1105.08 383.958L1086.29 425.57L1084.49 422.806L1114.22 414.838L1116.04 421.638L1079.14 431.528ZM1113.35 393.272L1113.26 378.587L1115.55 382.942C1114.11 383.329 1112.77 383.201 1111.54 382.559C1110.35 381.907 1109.55 380.818 1109.14 379.293C1108.73 377.768 1108.88 376.425 1109.58 375.265C1110.32 374.052 1111.39 373.258 1112.79 372.882C1114.23 372.496 1115.55 372.649 1116.76 373.343C1117.96 374.037 1118.76 375.126 1119.16 376.609C1119.28 377.063 1119.36 377.548 1119.41 378.064C1119.49 378.529 1119.51 379.098 1119.47 379.771C1119.46 380.392 1119.38 381.232 1119.22 382.29L1118.36 391.93L1113.35 393.272ZM1139.14 388.349L1160.65 382.584L1162.43 389.198L1140.91 394.963L1139.14 388.349ZM1144.73 406.729L1169.15 400.185L1170.95 406.923L1138.5 415.62L1126.9 372.347L1158.49 363.882L1160.3 370.62L1136.74 376.932L1144.73 406.729ZM1179.91 404.522L1168.31 361.249L1188.59 355.816C1193.78 354.424 1198.02 354.394 1201.29 355.726C1204.55 357.016 1206.64 359.372 1207.56 362.793C1208.17 365.101 1208.17 367.222 1207.54 369.158C1206.9 371.052 1205.79 372.696 1204.22 374.089C1202.68 375.429 1200.86 376.381 1198.76 376.944L1199.28 374.42C1201.71 373.769 1204.01 373.637 1206.19 374.024C1208.36 374.371 1210.23 375.24 1211.79 376.631C1213.4 378.012 1214.54 379.959 1215.21 382.473C1216.21 386.182 1215.56 389.448 1213.27 392.271C1210.98 395.093 1207.03 397.256 1201.42 398.758L1179.91 404.522ZM1186.26 396.063L1199.24 392.585C1202.25 391.778 1204.42 390.665 1205.77 389.245C1207.11 387.826 1207.49 386.024 1206.9 383.839C1206.33 381.696 1205.1 380.346 1203.23 379.787C1201.35 379.188 1198.9 379.291 1195.89 380.097L1182.29 383.742L1180.62 377.498L1192.61 374.284C1195.42 373.533 1197.43 372.464 1198.64 371.078C1199.9 369.68 1200.27 367.992 1199.74 366.014C1199.2 363.994 1198.03 362.694 1196.24 362.114C1194.49 361.522 1192.22 361.602 1189.42 362.353L1178.04 365.401L1186.26 396.063ZM1244.02 387.342L1232.43 344.069L1250.23 339.298C1254.06 338.27 1257.51 338.011 1260.56 338.518C1263.65 339.015 1266.25 340.218 1268.35 342.128C1270.45 344.039 1271.93 346.58 1272.78 349.754C1273.63 352.927 1273.62 355.867 1272.76 358.572C1271.88 361.236 1270.23 363.557 1267.8 365.533C1265.4 367.457 1262.28 368.933 1258.45 369.96L1245.1 373.538L1247.7 368.93L1252.06 385.188L1244.02 387.342ZM1272.34 379.755L1257.19 366.985L1265.78 364.682L1280.99 377.435L1272.34 379.755ZM1247.94 369.795L1243.32 366.923L1256.3 363.444C1259.85 362.495 1262.3 361.02 1263.67 359.02C1265.07 357.009 1265.41 354.644 1264.68 351.924C1263.94 349.163 1262.46 347.283 1260.25 346.285C1258.08 345.277 1255.23 345.247 1251.68 346.197L1238.7 349.676L1241.23 344.759L1247.94 369.795ZM1283.12 376.865L1291 328.373L1298.91 326.253L1330.04 364.291L1321.63 366.544L1294.43 332.026L1297.64 331.164L1291.4 374.645L1283.12 376.865ZM1289.4 364.448L1289.87 357.563L1313.24 351.301L1317.1 357.026L1289.4 364.448ZM1332.27 363.694L1330.83 358.316L1349.62 316.704L1351.36 319.485L1322.93 327.105L1321.1 320.305L1356.77 310.747L1358.22 316.125L1339.42 357.737L1337.62 354.973L1367.35 347.004L1369.17 353.804L1332.27 363.694ZM1366.48 325.439L1366.39 310.754L1368.68 315.109C1367.24 315.495 1365.9 315.368 1364.67 314.726C1363.48 314.074 1362.68 312.985 1362.27 311.46C1361.86 309.935 1362.01 308.592 1362.72 307.432C1363.45 306.219 1364.52 305.424 1365.92 305.049C1367.36 304.662 1368.69 304.816 1369.89 305.51C1371.09 306.204 1371.89 307.293 1372.29 308.776C1372.41 309.23 1372.49 309.715 1372.54 310.231C1372.62 310.696 1372.64 311.264 1372.6 311.938C1372.59 312.559 1372.51 313.399 1372.35 314.457L1371.49 324.097L1366.48 325.439ZM1392.27 320.515L1413.78 314.75L1415.56 321.365L1394.04 327.13L1392.27 320.515ZM1397.86 338.895L1422.28 332.352L1424.08 339.09L1391.63 347.787L1380.03 304.514L1411.62 296.049L1413.43 302.787L1389.87 309.099L1397.86 338.895ZM1433.04 336.689L1421.45 293.416L1441.72 287.982C1446.92 286.591 1451.15 286.561 1454.42 287.893C1457.68 289.183 1459.77 291.539 1460.69 294.959C1461.31 297.267 1461.3 299.389 1460.67 301.325C1460.03 303.219 1458.92 304.863 1457.35 306.255C1455.81 307.596 1453.99 308.547 1451.89 309.111L1452.41 306.587C1454.84 305.935 1457.14 305.803 1459.32 306.191C1461.49 306.537 1463.36 307.406 1464.93 308.798C1466.53 310.178 1467.67 312.126 1468.35 314.64C1469.34 318.349 1468.69 321.615 1466.4 324.437C1464.11 327.26 1460.16 329.422 1454.55 330.924L1433.04 336.689ZM1439.39 328.23L1452.37 324.751C1455.38 323.945 1457.55 322.832 1458.9 321.412C1460.24 319.992 1460.62 318.19 1460.03 316.006C1459.46 313.863 1458.23 312.512 1456.36 311.954C1454.48 311.354 1452.03 311.458 1449.02 312.264L1435.42 315.908L1433.75 309.665L1445.74 306.451C1448.55 305.7 1450.56 304.631 1451.78 303.244C1453.04 301.847 1453.4 300.159 1452.87 298.18C1452.33 296.161 1451.16 294.861 1449.37 294.281C1447.62 293.689 1445.35 293.769 1442.55 294.52L1431.17 297.568L1439.39 328.23ZM1497.15 319.508L1485.56 276.235L1503.36 271.464C1507.2 270.437 1510.64 270.177 1513.69 270.685C1516.78 271.181 1519.38 272.385 1521.48 274.295C1523.58 276.205 1525.06 278.747 1525.91 281.921C1526.76 285.094 1526.75 288.033 1525.89 290.739C1525.01 293.403 1523.36 295.723 1520.93 297.7C1518.53 299.624 1515.41 301.099 1511.58 302.126L1498.23 305.705L1500.83 301.097L1505.19 317.355L1497.15 319.508ZM1525.47 311.921L1510.32 299.151L1518.91 296.849L1534.12 309.602L1525.47 311.921ZM1501.07 301.962L1496.45 299.09L1509.44 295.611C1512.98 294.661 1515.43 293.187 1516.8 291.187C1518.2 289.176 1518.54 286.811 1517.81 284.091C1517.07 281.329 1515.6 279.45 1513.38 278.452C1511.22 277.443 1508.36 277.414 1504.81 278.364L1491.83 281.843L1494.36 276.925L1501.07 301.962ZM1536.25 309.031L1544.13 260.54L1552.04 258.419L1583.17 296.458L1574.77 298.711L1547.56 264.192L1550.77 263.331L1544.54 306.812L1536.25 309.031ZM1542.53 296.615L1543.01 289.729L1566.37 283.467L1570.23 289.193L1542.53 296.615ZM1585.4 295.861L1583.96 290.483L1602.76 248.871L1604.49 251.652L1576.06 259.272L1574.24 252.472L1609.91 242.913L1611.35 248.292L1592.55 289.903L1590.75 287.139L1620.48 279.171L1622.31 285.971L1585.4 295.861ZM1619.61 257.605L1619.52 242.921L1621.81 247.276C1620.37 247.662 1619.03 247.535 1617.8 246.893C1616.61 246.24 1615.81 245.151 1615.4 243.627C1614.99 242.102 1615.14 240.759 1615.85 239.598C1616.58 238.385 1617.65 237.591 1619.05 237.216C1620.49 236.829 1621.82 236.983 1623.02 237.677C1624.22 238.371 1625.02 239.459 1625.42 240.943C1625.54 241.396 1625.62 241.881 1625.67 242.398C1625.76 242.862 1625.78 243.431 1625.73 244.105C1625.72 244.726 1625.64 245.565 1625.48 246.624L1624.62 256.264L1619.61 257.605ZM1645.4 252.682L1666.92 246.917L1668.69 253.532L1647.17 259.297L1645.4 252.682ZM1650.99 271.062L1675.41 264.519L1677.21 271.257L1644.76 279.954L1633.16 236.681L1664.75 228.216L1666.56 234.954L1643.01 241.265L1650.99 271.062ZM1686.17 268.856L1674.58 225.583L1694.85 220.149C1700.05 218.758 1704.28 218.728 1707.55 220.059C1710.81 221.35 1712.9 223.706 1713.82 227.126C1714.44 229.434 1714.43 231.556 1713.8 233.491C1713.16 235.386 1712.05 237.029 1710.48 238.422C1708.94 239.762 1707.12 240.714 1705.02 241.277L1705.54 238.754C1707.97 238.102 1710.27 237.97 1712.45 238.358C1714.62 238.704 1716.49 239.573 1718.06 240.965C1719.66 242.345 1720.8 244.292 1721.48 246.806C1722.47 250.515 1721.82 253.781 1719.53 256.604C1717.24 259.427 1713.29 261.589 1707.69 263.091L1686.17 268.856ZM1692.52 260.397L1705.5 256.918C1708.51 256.112 1710.69 254.999 1712.03 253.579C1713.37 252.159 1713.75 250.357 1713.16 248.173C1712.59 246.03 1711.37 244.679 1709.49 244.121C1707.61 243.521 1705.16 243.624 1702.16 244.431L1688.56 248.075L1686.88 241.831L1698.88 238.618C1701.68 237.867 1703.69 236.798 1704.91 235.411C1706.17 234.013 1706.53 232.325 1706 230.347C1705.46 228.328 1704.29 227.028 1702.5 226.447C1700.76 225.856 1698.48 225.936 1695.68 226.687L1684.3 229.735L1692.52 260.397ZM1750.29 251.675L1738.69 208.402L1756.49 203.631C1760.33 202.604 1763.77 202.344 1766.82 202.852C1769.91 203.348 1772.51 204.551 1774.61 206.462C1776.71 208.372 1778.19 210.914 1779.04 214.087C1779.89 217.261 1779.88 220.2 1779.02 222.906C1778.14 225.57 1776.49 227.89 1774.06 229.866C1771.66 231.791 1768.54 233.266 1764.71 234.293L1751.36 237.871L1753.97 233.263L1758.32 249.522L1750.29 251.675ZM1778.6 244.088L1763.45 231.318L1772.04 229.016L1787.25 241.769L1778.6 244.088ZM1754.2 234.129L1749.59 231.257L1762.57 227.778C1766.11 226.828 1768.57 225.353 1769.93 223.354C1771.33 221.343 1771.67 218.977 1770.94 216.257C1770.2 213.496 1768.73 211.617 1766.52 210.619C1764.35 209.61 1761.49 209.581 1757.95 210.531L1744.96 214.009L1747.49 209.092L1754.2 234.129ZM1789.38 241.198L1797.26 192.707L1805.17 190.586L1836.3 228.625L1827.9 230.878L1800.69 196.359L1803.9 195.498L1797.67 238.978L1789.38 241.198ZM1795.66 228.781L1796.14 221.896L1819.5 215.634L1823.36 221.36L1795.66 228.781ZM1838.53 228.028L1837.09 222.65L1855.89 181.038L1857.63 183.818L1829.19 191.439L1827.37 184.639L1863.04 175.08L1864.48 180.458L1845.68 222.07L1843.88 219.306L1873.61 211.338L1875.44 218.138L1838.53 228.028ZM1872.74 189.772L1872.65 175.088L1874.95 179.442C1873.5 179.829 1872.17 179.701 1870.93 179.06C1869.74 178.407 1868.94 177.318 1868.53 175.793C1868.13 174.269 1868.27 172.926 1868.98 171.765C1869.71 170.552 1870.78 169.758 1872.18 169.382C1873.63 168.996 1874.95 169.15 1876.15 169.843C1877.35 170.537 1878.15 171.626 1878.55 173.11C1878.67 173.563 1878.76 174.048 1878.81 174.565C1878.89 175.029 1878.91 175.598 1878.87 176.271C1878.86 176.892 1878.77 177.732 1878.61 178.791L1877.75 188.43L1872.74 189.772ZM1898.53 184.849L1920.05 179.084L1921.82 185.699L1900.31 191.463L1898.53 184.849ZM1904.12 203.229L1928.54 196.685L1930.35 203.424L1897.89 212.121L1886.29 168.847L1917.88 160.382L1919.69 167.121L1896.14 173.432L1904.12 203.229ZM1939.3 201.023L1927.71 157.75L1947.98 152.316C1953.18 150.924 1957.41 150.894 1960.68 152.226C1963.94 153.517 1966.03 155.872 1966.95 159.293C1967.57 161.601 1967.56 163.723 1966.93 165.658C1966.29 167.553 1965.19 169.196 1963.62 170.589C1962.08 171.929 1960.25 172.881 1958.15 173.444L1958.67 170.921C1961.1 170.269 1963.41 170.137 1965.59 170.525C1967.75 170.871 1969.62 171.74 1971.19 173.131C1972.79 174.512 1973.93 176.459 1974.61 178.973C1975.6 182.682 1974.95 185.948 1972.66 188.771C1970.37 191.593 1966.42 193.756 1960.82 195.258L1939.3 201.023ZM1945.65 192.564L1958.63 189.085C1961.64 188.279 1963.82 187.166 1965.16 185.746C1966.5 184.326 1966.88 182.524 1966.29 180.34C1965.72 178.197 1964.5 176.846 1962.62 176.287C1960.74 175.688 1958.3 175.791 1955.29 176.597L1941.69 180.242L1940.01 173.998L1952.01 170.784C1954.81 170.033 1956.82 168.965 1958.04 167.578C1959.3 166.18 1959.66 164.492 1959.13 162.514C1958.59 160.495 1957.43 159.195 1955.64 158.614C1953.89 158.023 1951.61 158.102 1948.81 158.853L1937.43 161.902L1945.65 192.564ZM2003.42 183.842L1991.82 140.569L2009.62 135.798C2013.46 134.771 2016.9 134.511 2019.95 135.018C2023.04 135.515 2025.64 136.718 2027.74 138.628C2029.85 140.539 2031.32 143.081 2032.17 146.254C2033.02 149.427 2033.01 152.367 2032.15 155.072C2031.27 157.737 2029.62 160.057 2027.19 162.033C2024.79 163.957 2021.67 165.433 2017.84 166.46L2004.49 170.038L2007.1 165.43L2011.45 181.688L2003.42 183.842ZM2031.73 176.255L2016.58 163.485L2025.17 161.182L2040.38 173.936L2031.73 176.255ZM2007.33 166.296L2002.72 163.424L2015.7 159.945C2019.24 158.995 2021.7 157.52 2023.06 155.52C2024.46 153.51 2024.8 151.144 2024.07 148.424C2023.33 145.663 2021.86 143.783 2019.65 142.786C2017.48 141.777 2014.62 141.747 2011.08 142.697L1998.09 146.176L2000.62 141.259L2007.33 166.296ZM2042.51 173.365L2050.39 124.873L2058.3 122.753L2089.43 160.791L2081.03 163.044L2053.82 128.526L2057.04 127.665L2050.8 171.145L2042.51 173.365ZM2048.79 160.948L2049.27 154.063L2072.64 147.801L2076.49 153.527L2048.79 160.948ZM2091.66 160.195L2090.22 154.816L2109.02 113.204L2110.76 115.985L2082.32 123.605L2080.5 116.805L2116.17 107.247L2117.61 112.625L2098.81 154.237L2097.01 151.473L2126.75 143.505L2128.57 150.305L2091.66 160.195ZM2125.88 121.939L2125.78 107.254L2128.08 111.609C2126.63 111.996 2125.3 111.868 2124.06 111.226C2122.87 110.574 2122.07 109.485 2121.67 107.96C2121.26 106.435 2121.4 105.092 2122.11 103.932C2122.84 102.719 2123.91 101.925 2125.31 101.549C2126.76 101.163 2128.08 101.316 2129.28 102.01C2130.48 102.704 2131.28 103.793 2131.68 105.276C2131.8 105.73 2131.89 106.215 2131.94 106.731C2132.02 107.196 2132.04 107.765 2132 108.438C2131.99 109.059 2131.9 109.899 2131.74 110.957L2130.88 120.597L2125.88 121.939ZM2151.66 117.016L2173.18 111.251L2174.95 117.865L2153.44 123.63L2151.66 117.016ZM2157.25 135.396L2181.67 128.852L2183.48 135.59L2151.02 144.287L2139.43 101.014L2171.02 92.549L2172.82 99.2873L2149.27 105.599L2157.25 135.396ZM2192.44 133.19L2180.84 89.9163L2201.12 84.4827C2206.31 83.0911 2210.54 83.0612 2213.81 84.3929C2217.07 85.6835 2219.16 88.039 2220.08 91.4597C2220.7 93.7676 2220.69 95.8893 2220.06 97.825C2219.42 99.7194 2218.32 101.363 2216.75 102.756C2215.21 104.096 2213.39 105.048 2211.28 105.611L2211.8 103.087C2214.23 102.436 2216.54 102.304 2218.72 102.691C2220.89 103.038 2222.75 103.907 2224.32 105.298C2225.93 106.679 2227.07 108.626 2227.74 111.14C2228.73 114.849 2228.08 118.115 2225.79 120.938C2223.5 123.76 2219.55 125.923 2213.95 127.425L2192.44 133.19ZM2198.78 124.73L2211.76 121.252C2214.77 120.445 2216.95 119.332 2218.29 117.912C2219.63 116.493 2220.01 114.691 2219.43 112.506C2218.85 110.363 2217.63 109.013 2215.76 108.454C2213.87 107.855 2211.43 107.958 2208.42 108.764L2194.82 112.409L2193.14 106.165L2205.14 102.951C2207.94 102.2 2209.95 101.131 2211.17 99.7446C2212.43 98.3469 2212.79 96.6589 2212.26 94.6807C2211.72 92.6613 2210.56 91.3614 2208.77 90.7809C2207.02 90.1894 2204.74 90.2691 2201.94 91.0201L2190.57 94.0683L2198.78 124.73Z" fill="#141414"/>
</g>
</g>
<defs>
<clipPath id="clip0_1239_47">
<rect width="1900" height="867" fill="white"/>
</clipPath>
<clipPath id="clip1_1239_47">
<rect width="2128.16" height="95.4431" fill="white" transform="translate(-30.3291 122) rotate(15)"/>
</clipPath>
<clipPath id="clip2_1239_47">
<rect width="2128.16" height="95.4431" fill="white" transform="translate(-35 651.81) rotate(-15)"/>
</clipPath>
</defs>
</svg>
