<svg width="430" height="867" viewBox="0 0 430 867" fill="none" xmlns="http://www.w3.org/2000/svg">
<g clip-path="url(#clip0_1239_47)">
<rect width="430" height="867" fill="#141414"/>
<g clip-path="url(#clip1_1239_47)">
<rect width="1109.82" height="49.7729" transform="translate(-315 266) rotate(15)" fill="#5AC7A5"/>
<path d="M-242.26 323.405L-244.793 316.407C-244.971 316.38 -245.232 316.321 -245.577 316.228L-250.121 315.011L-251.693 320.877L-255.431 319.876L-250.038 299.745L-241.756 301.964C-240.011 302.432 -238.574 303.125 -237.443 304.044C-236.294 304.969 -235.518 306.06 -235.115 307.319C-234.712 308.577 -234.709 309.945 -235.104 311.421C-235.51 312.936 -236.233 314.139 -237.274 315.032C-238.295 315.929 -239.568 316.461 -241.092 316.628L-238.234 324.483L-242.26 323.405ZM-238.872 310.412C-238.528 309.127 -238.685 308.027 -239.344 307.111C-240.002 306.194 -241.146 305.518 -242.776 305.081L-247.147 303.91L-249.297 311.934L-244.926 313.105C-243.296 313.541 -241.967 313.528 -240.938 313.063C-239.905 312.58 -239.216 311.696 -238.872 310.412ZM-220.092 324.351L-230.158 321.654L-233.39 325.781L-237.244 324.749L-222.792 307.045L-219.111 308.031L-215.417 330.597L-219.328 329.549L-220.092 324.351ZM-220.543 321.086L-221.982 311.269L-228.106 319.06L-220.543 321.086ZM-196.365 332.311L-197.212 335.474L-214.381 330.874L-213.71 328.372L-197.987 317.081L-209.633 313.961L-208.786 310.798L-192.193 315.243L-192.863 317.745L-208.587 329.036L-196.365 332.311ZM-187.183 315.075C-186.512 315.255 -186.015 315.625 -185.692 316.184C-185.369 316.743 -185.3 317.367 -185.485 318.058C-185.577 318.403 -185.715 318.725 -185.898 319.026C-186.062 319.331 -186.356 319.776 -186.78 320.361L-189.37 324.044L-191.699 323.42L-189.362 319.3C-189.743 319.033 -190.009 318.685 -190.161 318.253C-190.288 317.808 -190.282 317.327 -190.144 316.809C-189.959 316.119 -189.587 315.613 -189.028 315.29C-188.469 314.967 -187.854 314.896 -187.183 315.075ZM-170.829 339.183L-171.669 342.318L-186.767 338.273L-181.373 318.142L-166.678 322.079L-167.518 325.214L-178.474 322.278L-179.877 327.512L-170.157 330.116L-170.981 333.194L-180.701 330.589L-182.188 336.14L-170.829 339.183ZM-150.433 336.788C-149.418 337.45 -148.701 338.3 -148.28 339.337C-147.854 340.356 -147.811 341.497 -148.15 342.763C-148.617 344.507 -149.65 345.679 -151.249 346.278C-152.843 346.858 -154.924 346.804 -157.493 346.116L-167.501 343.434L-162.108 323.304L-152.675 325.831C-150.298 326.468 -148.593 327.428 -147.56 328.712C-146.522 329.976 -146.221 331.423 -146.658 333.053C-146.925 334.05 -147.391 334.87 -148.057 335.514C-148.723 336.157 -149.514 336.582 -150.433 336.788ZM-159.155 327.239L-160.642 332.789L-155.351 334.207C-154.047 334.556 -152.988 334.593 -152.175 334.318C-151.337 334.028 -150.798 333.433 -150.556 332.532C-150.31 331.612 -150.479 330.827 -151.065 330.177C-151.627 329.512 -152.56 329.006 -153.864 328.656L-159.155 327.239ZM-156.938 343.121C-154.043 343.896 -152.336 343.316 -151.817 341.379C-151.298 339.443 -152.486 338.087 -155.381 337.311L-161.42 335.693L-162.977 341.503L-156.938 343.121ZM-124.505 354.954L-127.038 347.957C-127.216 347.93 -127.477 347.87 -127.822 347.777L-132.366 346.56L-133.938 352.427L-137.676 351.425L-132.283 331.295L-124 333.514C-122.256 333.981 -120.818 334.674 -119.688 335.594C-118.538 336.518 -117.762 337.61 -117.36 338.868C-116.957 340.127 -116.954 341.494 -117.349 342.97C-117.755 344.485 -118.478 345.688 -119.519 346.581C-120.54 347.478 -121.813 348.011 -123.337 348.178L-120.479 356.032L-124.505 354.954ZM-121.116 341.961C-120.772 340.676 -120.929 339.576 -121.588 338.66C-122.247 337.744 -123.391 337.067 -125.021 336.631L-129.392 335.46L-131.541 343.483L-127.17 344.654C-125.541 345.091 -124.212 345.077 -123.183 344.613C-122.149 344.129 -121.461 343.245 -121.116 341.961ZM-102.337 355.9L-112.402 353.203L-115.635 357.33L-119.488 356.298L-105.036 338.594L-101.355 339.581L-97.6612 362.146L-101.572 361.098L-102.337 355.9ZM-102.788 352.635L-104.226 342.818L-110.351 350.609L-102.788 352.635ZM-78.6093 363.86L-79.4568 367.023L-96.6252 362.423L-95.9549 359.921L-80.2311 348.631L-91.878 345.51L-91.0305 342.347L-74.4373 346.793L-75.1076 349.294L-90.8313 360.585L-78.6093 363.86ZM-69.4272 346.625C-68.7562 346.804 -68.2593 347.174 -67.9365 347.733C-67.6137 348.292 -67.5447 348.917 -67.7297 349.607C-67.8221 349.952 -67.9599 350.275 -68.1431 350.575C-68.3071 350.88 -68.6011 351.325 -69.0249 351.91L-71.6144 355.593L-73.9438 354.969L-71.607 350.849C-71.9877 350.582 -72.2538 350.234 -72.4055 349.803C-72.5328 349.358 -72.5271 348.876 -72.3884 348.359C-72.2035 347.668 -71.8315 347.162 -71.2724 346.839C-70.7133 346.516 -70.0983 346.445 -69.4272 346.625ZM-53.0735 370.732L-53.9133 373.867L-69.0112 369.822L-63.6178 349.691L-48.9226 353.629L-49.7624 356.763L-60.7191 353.828L-62.1214 359.061L-52.4012 361.666L-53.2257 364.743L-62.9458 362.139L-64.4328 367.689L-53.0735 370.732ZM-32.6773 368.337C-31.6629 368.999 -30.9454 369.849 -30.5247 370.887C-30.0988 371.905 -30.0554 373.047 -30.3944 374.312C-30.8618 376.057 -31.895 377.228 -33.4939 377.827C-35.0876 378.407 -37.1689 378.353 -39.738 377.665L-49.7457 374.983L-44.3523 354.853L-34.9197 357.38C-32.5424 358.017 -30.8374 358.977 -29.8045 360.261C-28.7666 361.525 -28.4659 362.972 -28.9025 364.602C-29.1696 365.599 -29.636 366.419 -30.3015 367.063C-30.9671 367.706 -31.759 368.131 -32.6773 368.337ZM-41.3997 358.788L-42.8867 364.338L-37.5953 365.756C-36.2916 366.105 -35.233 366.142 -34.4196 365.867C-33.5818 365.578 -33.0422 364.983 -32.8008 364.081C-32.5542 363.161 -32.724 362.376 -33.3101 361.726C-33.8718 361.062 -34.8046 360.555 -36.1083 360.206L-41.3997 358.788ZM-39.1821 374.67C-36.2872 375.445 -34.5803 374.865 -34.0615 372.929C-33.5427 370.992 -34.7308 369.636 -37.6258 368.861L-43.6649 367.243L-45.2213 373.052L-39.1821 374.67ZM-6.74963 386.503L-9.28251 379.506C-9.46019 379.479 -9.72158 379.419 -10.0667 379.327L-14.6104 378.109L-16.1822 383.976L-19.9207 382.974L-14.5273 362.844L-6.24507 365.063C-4.50043 365.53 -3.0629 366.224 -1.93248 367.143C-0.78289 368.067 -0.00682464 369.159 0.395716 370.417C0.798255 371.676 0.801766 373.043 0.406251 374.519C0.000462804 376.034 -0.722675 377.238 -1.76316 378.13C-2.78448 379.028 -4.05723 379.56 -5.58143 379.727L-2.72354 387.582L-6.74963 386.503ZM-3.36102 373.51C-3.01687 372.226 -3.17412 371.125 -3.83277 370.209C-4.49141 369.293 -5.63554 368.616 -7.26515 368.18L-11.6363 367.009L-13.786 375.032L-9.4148 376.203C-7.78519 376.64 -6.45615 376.626 -5.42767 376.162C-4.39405 375.679 -3.70517 374.795 -3.36102 373.51ZM15.4183 387.449L5.35305 384.752L2.12058 388.88L-1.73297 387.847L12.7191 370.144L16.4001 371.13L20.0942 393.695L16.1831 392.647L15.4183 387.449ZM14.9676 384.185L13.5292 374.368L7.40429 382.158L14.9676 384.185ZM39.1461 395.409L38.2986 398.572L21.1302 393.973L21.8005 391.471L37.5242 380.18L25.8773 377.059L26.7249 373.896L43.3181 378.342L42.6478 380.844L26.924 392.135L39.1461 395.409ZM48.3281 378.174C48.9992 378.354 49.4961 378.723 49.8189 379.282C50.1417 379.841 50.2106 380.466 50.0257 381.156C49.9333 381.501 49.7955 381.824 49.6123 382.124C49.4483 382.429 49.1543 382.875 48.7304 383.46L46.141 387.143L43.8116 386.519L46.1484 382.398C45.7677 382.132 45.5016 381.783 45.3499 381.352C45.2226 380.907 45.2283 380.425 45.367 379.908C45.5519 379.218 45.9239 378.711 46.483 378.388C47.0421 378.066 47.6571 377.994 48.3281 378.174ZM64.6819 402.281L63.842 405.416L48.7442 401.371L54.1376 381.241L68.8328 385.178L67.993 388.312L57.0363 385.377L55.634 390.611L65.3541 393.215L64.5297 396.292L54.8096 393.688L53.3225 399.238L64.6819 402.281ZM85.0781 399.886C86.0925 400.549 86.81 401.398 87.2307 402.436C87.6566 403.454 87.7 404.596 87.361 405.861C86.8935 407.606 85.8604 408.778 84.2615 409.377C82.6678 409.956 80.5864 409.902 78.0174 409.214L68.0097 406.533L73.4031 386.402L82.8356 388.929C85.2129 389.566 86.918 390.527 87.9508 391.81C88.9888 393.075 89.2895 394.522 88.8529 396.151C88.5858 397.148 88.1194 397.968 87.4538 398.612C86.7882 399.256 85.9963 399.68 85.0781 399.886ZM76.3557 390.337L74.8687 395.887L80.1601 397.305C81.4638 397.654 82.5224 397.691 83.3358 397.416C84.1736 397.127 84.7132 396.532 84.9546 395.631C85.2012 394.71 85.0314 393.925 84.4453 393.275C83.8835 392.611 82.9508 392.104 81.6471 391.755L76.3557 390.337ZM78.5732 406.219C81.4682 406.995 83.1751 406.414 83.6938 404.478C84.2126 402.542 83.0246 401.186 80.1296 400.41L74.0905 398.792L72.5341 404.601L78.5732 406.219ZM111.006 418.052L108.473 411.055C108.295 411.028 108.034 410.968 107.689 410.876L103.145 409.658L101.573 415.525L97.8347 414.523L103.228 394.393L111.51 396.612C113.255 397.079 114.692 397.773 115.823 398.692C116.972 399.616 117.749 400.708 118.151 401.967C118.554 403.225 118.557 404.592 118.162 406.069C117.756 407.583 117.033 408.787 115.992 409.679C114.971 410.577 113.698 411.109 112.174 411.276L115.032 419.131L111.006 418.052ZM114.394 405.059C114.739 403.775 114.581 402.674 113.923 401.758C113.264 400.842 112.12 400.166 110.49 399.729L106.119 398.558L103.969 406.581L108.341 407.753C109.97 408.189 111.299 408.175 112.328 407.711C113.361 407.228 114.05 406.344 114.394 405.059ZM133.174 418.998L123.108 416.302L119.876 420.429L116.022 419.396L130.475 401.693L134.156 402.679L137.85 425.244L133.939 424.196L133.174 418.998ZM132.723 415.734L131.285 405.917L125.16 413.707L132.723 415.734ZM156.901 426.958L156.054 430.122L138.886 425.522L139.556 423.02L155.28 411.729L143.633 408.609L144.48 405.445L161.073 409.891L160.403 412.393L144.679 423.684L156.901 426.958ZM166.084 409.723C166.755 409.903 167.251 410.272 167.574 410.831C167.897 411.39 167.966 412.015 167.781 412.705C167.689 413.05 167.551 413.373 167.368 413.673C167.204 413.979 166.91 414.424 166.486 415.009L163.896 418.692L161.567 418.068L163.904 413.947C163.523 413.681 163.257 413.332 163.105 412.901C162.978 412.456 162.984 411.975 163.122 411.457C163.307 410.767 163.679 410.26 164.238 409.938C164.797 409.615 165.413 409.543 166.084 409.723ZM182.437 433.831L181.597 436.965L166.5 432.92L171.893 412.79L186.588 416.727L185.748 419.862L174.792 416.926L173.389 422.16L183.109 424.764L182.285 427.841L172.565 425.237L171.078 430.787L182.437 433.831ZM202.833 431.436C203.848 432.098 204.565 432.948 204.986 433.985C205.412 435.003 205.455 436.145 205.116 437.41C204.649 439.155 203.616 440.327 202.017 440.926C200.423 441.506 198.342 441.451 195.773 440.763L185.765 438.082L191.158 417.951L200.591 420.479C202.968 421.116 204.673 422.076 205.706 423.359C206.744 424.624 207.045 426.071 206.608 427.7C206.341 428.697 205.875 429.518 205.209 430.161C204.544 430.805 203.752 431.23 202.833 431.436ZM194.111 421.886L192.624 427.437L197.915 428.854C199.219 429.204 200.278 429.241 201.091 428.965C201.929 428.676 202.469 428.081 202.71 427.18C202.957 426.26 202.787 425.474 202.201 424.824C201.639 424.16 200.706 423.653 199.402 423.304L194.111 421.886ZM196.329 437.768C199.224 438.544 200.93 437.963 201.449 436.027C201.968 434.091 200.78 432.735 197.885 431.959L191.846 430.341L190.289 436.15L196.329 437.768ZM228.761 449.601L226.228 442.604C226.051 442.577 225.789 442.518 225.444 442.425L220.9 441.208L219.329 447.074L215.59 446.073L220.983 425.942L229.266 428.161C231.01 428.629 232.448 429.322 233.578 430.241C234.728 431.166 235.504 432.257 235.906 433.516C236.309 434.774 236.313 436.142 235.917 437.618C235.511 439.132 234.788 440.336 233.748 441.228C232.726 442.126 231.454 442.658 229.929 442.825L232.787 450.68L228.761 449.601ZM232.15 436.609C232.494 435.324 232.337 434.224 231.678 433.308C231.019 432.391 229.875 431.715 228.246 431.278L223.874 430.107L221.725 438.131L226.096 439.302C227.726 439.738 229.055 439.725 230.083 439.26C231.117 438.777 231.806 437.893 232.15 436.609ZM250.929 450.548L240.864 447.851L237.631 451.978L233.778 450.946L248.23 433.242L251.911 434.228L255.605 456.794L251.694 455.746L250.929 450.548ZM250.478 447.283L249.04 437.466L242.915 445.257L250.478 447.283ZM274.657 458.508L273.809 461.671L256.641 457.071L257.311 454.569L273.035 443.278L261.388 440.158L262.236 436.995L278.829 441.44L278.159 443.942L262.435 455.233L274.657 458.508ZM283.839 441.272C284.51 441.452 285.007 441.821 285.33 442.381C285.652 442.94 285.721 443.564 285.536 444.254C285.444 444.6 285.306 444.922 285.123 445.222C284.959 445.528 284.665 445.973 284.241 446.558L281.652 450.241L279.322 449.617L281.659 445.496C281.278 445.23 281.012 444.881 280.861 444.45C280.733 444.005 280.739 443.524 280.878 443.006C281.063 442.316 281.435 441.81 281.994 441.487C282.553 441.164 283.168 441.092 283.839 441.272ZM300.193 465.38L299.353 468.515L284.255 464.469L289.648 444.339L304.344 448.276L303.504 451.411L292.547 448.475L291.145 453.709L300.865 456.313L300.04 459.39L290.32 456.786L288.833 462.337L300.193 465.38ZM320.589 462.985C321.603 463.647 322.321 464.497 322.741 465.534C323.167 466.552 323.211 467.694 322.872 468.96C322.404 470.704 321.371 471.876 319.772 472.475C318.179 473.055 316.097 473.001 313.528 472.312L303.52 469.631L308.914 449.501L318.346 452.028C320.724 452.665 322.429 453.625 323.462 454.909C324.5 456.173 324.8 457.62 324.364 459.25C324.097 460.247 323.63 461.067 322.965 461.71C322.299 462.354 321.507 462.779 320.589 462.985ZM311.866 453.436L310.379 458.986L315.671 460.404C316.975 460.753 318.033 460.79 318.847 460.515C319.684 460.225 320.224 459.63 320.465 458.729C320.712 457.809 320.542 457.024 319.956 456.374C319.394 455.709 318.462 455.203 317.158 454.853L311.866 453.436ZM314.084 469.317C316.979 470.093 318.686 469.513 319.205 467.576C319.723 465.64 318.535 464.284 315.64 463.508L309.601 461.89L308.045 467.699L314.084 469.317ZM346.516 481.151L343.984 474.154C343.806 474.126 343.545 474.067 343.199 473.974L338.656 472.757L337.084 478.624L333.345 477.622L338.739 457.491L347.021 459.71C348.766 460.178 350.203 460.871 351.334 461.791C352.483 462.715 353.259 463.806 353.662 465.065C354.064 466.324 354.068 467.691 353.672 469.167C353.267 470.682 352.543 471.885 351.503 472.778C350.482 473.675 349.209 474.208 347.685 474.375L350.543 482.229L346.516 481.151ZM349.905 468.158C350.249 466.873 350.092 465.773 349.433 464.857C348.775 463.941 347.631 463.264 346.001 462.828L341.63 461.656L339.48 469.68L343.851 470.851C345.481 471.288 346.81 471.274 347.838 470.81C348.872 470.326 349.561 469.442 349.905 468.158ZM368.684 482.097L358.619 479.4L355.387 483.527L351.533 482.495L365.985 464.791L369.666 465.778L373.36 488.343L369.449 487.295L368.684 482.097ZM368.234 478.832L366.795 469.015L360.67 476.806L368.234 478.832ZM392.412 490.057L391.565 493.22L374.396 488.62L375.067 486.118L390.79 474.828L379.143 471.707L379.991 468.544L396.584 472.989L395.914 475.491L380.19 486.782L392.412 490.057ZM401.594 472.821C402.265 473.001 402.762 473.371 403.085 473.93C403.408 474.489 403.477 475.114 403.292 475.804C403.199 476.149 403.062 476.471 402.878 476.772C402.714 477.077 402.42 477.522 401.997 478.107L399.407 481.79L397.078 481.166L399.415 477.046C399.034 476.779 398.768 476.431 398.616 476C398.489 475.555 398.494 475.073 398.633 474.556C398.818 473.865 399.19 473.359 399.749 473.036C400.308 472.713 400.923 472.642 401.594 472.821ZM417.948 496.929L417.108 500.064L402.01 496.019L407.404 475.888L422.099 479.825L421.259 482.96L410.302 480.024L408.9 485.258L418.62 487.863L417.796 490.94L408.076 488.335L406.589 493.886L417.948 496.929ZM438.344 494.534C439.359 495.196 440.076 496.046 440.497 497.083C440.923 498.102 440.966 499.243 440.627 500.509C440.16 502.253 439.127 503.425 437.528 504.024C435.934 504.604 433.853 504.55 431.284 503.862L421.276 501.18L426.669 481.05L436.102 483.577C438.479 484.214 440.184 485.174 441.217 486.458C442.255 487.722 442.556 489.169 442.119 490.799C441.852 491.796 441.386 492.616 440.72 493.26C440.054 493.903 439.262 494.328 438.344 494.534ZM429.622 484.985L428.135 490.535L433.426 491.953C434.73 492.302 435.788 492.339 436.602 492.064C437.44 491.775 437.979 491.179 438.221 490.278C438.467 489.358 438.298 488.573 437.711 487.923C437.15 487.259 436.217 486.752 434.913 486.402L429.622 484.985ZM431.839 500.867C434.734 501.642 436.441 501.062 436.96 499.126C437.479 497.189 436.291 495.833 433.396 495.058L427.357 493.44L425.8 499.249L431.839 500.867ZM464.272 512.7L461.739 505.703C461.561 505.676 461.3 505.616 460.955 505.524L456.411 504.306L454.839 510.173L451.101 509.171L456.494 489.041L464.776 491.26C466.521 491.727 467.959 492.42 469.089 493.34C470.239 494.264 471.015 495.356 471.417 496.614C471.82 497.873 471.823 499.24 471.428 500.716C471.022 502.231 470.299 503.434 469.258 504.327C468.237 505.225 466.964 505.757 465.44 505.924L468.298 513.779L464.272 512.7ZM467.66 499.707C468.005 498.423 467.847 497.322 467.189 496.406C466.53 495.49 465.386 494.813 463.756 494.377L459.385 493.206L457.236 501.229L461.607 502.4C463.236 502.837 464.565 502.823 465.594 502.359C466.627 501.875 467.316 500.992 467.66 499.707ZM486.44 513.646L476.375 510.949L473.142 515.076L469.289 514.044L483.741 496.341L487.422 497.327L491.116 519.892L487.205 518.844L486.44 513.646ZM485.989 510.381L484.551 500.564L478.426 508.355L485.989 510.381ZM510.168 521.606L509.32 524.769L492.152 520.17L492.822 517.668L508.546 506.377L496.899 503.256L497.746 500.093L514.34 504.539L513.669 507.041L497.946 518.331L510.168 521.606ZM519.35 504.371C520.021 504.55 520.518 504.92 520.84 505.479C521.163 506.038 521.232 506.663 521.047 507.353C520.955 507.698 520.817 508.021 520.634 508.321C520.47 508.626 520.176 509.072 519.752 509.657L517.162 513.34L514.833 512.715L517.17 508.595C516.789 508.329 516.523 507.98 516.371 507.549C516.244 507.104 516.25 506.622 516.388 506.105C516.573 505.415 516.945 504.908 517.505 504.585C518.064 504.262 518.679 504.191 519.35 504.371ZM535.703 528.478L534.864 531.613L519.766 527.568L525.159 507.437L539.854 511.375L539.015 514.509L528.058 511.574L526.655 516.808L536.376 519.412L535.551 522.489L525.831 519.885L524.344 525.435L535.703 528.478ZM556.1 526.083C557.114 526.746 557.832 527.595 558.252 528.633C558.678 529.651 558.721 530.793 558.382 532.058C557.915 533.803 556.882 534.974 555.283 535.574C553.689 536.153 551.608 536.099 549.039 535.411L539.031 532.73L544.425 512.599L553.857 515.126C556.234 515.763 557.94 516.723 558.972 518.007C560.01 519.271 560.311 520.718 559.874 522.348C559.607 523.345 559.141 524.165 558.475 524.809C557.81 525.452 557.018 525.877 556.1 526.083ZM547.377 516.534L545.89 522.084L551.182 523.502C552.485 523.851 553.544 523.888 554.357 523.613C555.195 523.324 555.735 522.729 555.976 521.828C556.223 520.907 556.053 520.122 555.467 519.472C554.905 518.808 553.972 518.301 552.669 517.952L547.377 516.534ZM549.595 532.416C552.49 533.192 554.197 532.611 554.715 530.675C555.234 528.738 554.046 527.382 551.151 526.607L545.112 524.989L543.556 530.798L549.595 532.416ZM582.027 544.249L579.494 537.252C579.317 537.225 579.055 537.165 578.71 537.073L574.166 535.855L572.595 541.722L568.856 540.72L574.25 520.59L582.532 522.809C584.276 523.276 585.714 523.97 586.844 524.889C587.994 525.813 588.77 526.905 589.173 528.163C589.575 529.422 589.579 530.789 589.183 532.266C588.777 533.78 588.054 534.984 587.014 535.876C585.992 536.774 584.72 537.306 583.195 537.473L586.053 545.328L582.027 544.249ZM585.416 531.256C585.76 529.972 585.603 528.871 584.944 527.955C584.285 527.039 583.141 526.363 581.512 525.926L577.141 524.755L574.991 532.778L579.362 533.949C580.992 534.386 582.321 534.372 583.349 533.908C584.383 533.425 585.072 532.541 585.416 531.256ZM604.195 545.195L594.13 542.499L590.897 546.626L587.044 545.593L601.496 527.89L605.177 528.876L608.871 551.441L604.96 550.393L604.195 545.195ZM603.744 541.931L602.306 532.114L596.181 539.904L603.744 541.931ZM627.923 553.155L627.075 556.319L609.907 551.719L610.577 549.217L626.301 537.926L614.654 534.806L615.502 531.642L632.095 536.088L631.425 538.59L615.701 549.881L627.923 553.155ZM637.105 535.92C637.776 536.1 638.273 536.469 638.596 537.028C638.919 537.587 638.988 538.212 638.803 538.902C638.71 539.247 638.572 539.57 638.389 539.87C638.225 540.176 637.931 540.621 637.507 541.206L634.918 544.889L632.588 544.265L634.925 540.144C634.545 539.878 634.278 539.529 634.127 539.098C634 538.653 634.005 538.172 634.144 537.654C634.329 536.964 634.701 536.457 635.26 536.134C635.819 535.812 636.434 535.74 637.105 535.92ZM653.459 560.028L652.619 563.162L637.521 559.117L642.914 538.987L657.61 542.924L656.77 546.058L645.813 543.123L644.411 548.357L654.131 550.961L653.307 554.038L643.586 551.434L642.099 556.984L653.459 560.028ZM673.855 557.633C674.869 558.295 675.587 559.145 676.008 560.182C676.433 561.2 676.477 562.342 676.138 563.607C675.67 565.352 674.637 566.524 673.038 567.123C671.445 567.703 669.363 567.648 666.794 566.96L656.787 564.279L662.18 544.148L671.612 546.676C673.99 547.312 675.695 548.273 676.728 549.556C677.766 550.821 678.066 552.268 677.63 553.897C677.363 554.894 676.896 555.714 676.231 556.358C675.565 557.002 674.773 557.427 673.855 557.633ZM665.133 548.083L663.646 553.634L668.937 555.051C670.241 555.4 671.299 555.438 672.113 555.162C672.95 554.873 673.49 554.278 673.731 553.377C673.978 552.457 673.808 551.671 673.222 551.021C672.66 550.357 671.728 549.85 670.424 549.501L665.133 548.083ZM667.35 563.965C670.245 564.741 671.952 564.16 672.471 562.224C672.99 560.288 671.801 558.932 668.906 558.156L662.867 556.538L661.311 562.347L667.35 563.965ZM699.783 575.798L697.25 568.801C697.072 568.774 696.811 568.714 696.466 568.622L691.922 567.405L690.35 573.271L686.612 572.27L692.005 552.139L700.287 554.358C702.032 554.826 703.469 555.519 704.6 556.438C705.749 557.363 706.525 558.454 706.928 559.713C707.331 560.971 707.334 562.339 706.938 563.815C706.533 565.329 705.81 566.533 704.769 567.425C703.748 568.323 702.475 568.855 700.951 569.022L703.809 576.877L699.783 575.798ZM703.171 562.805C703.515 561.521 703.358 560.421 702.699 559.504C702.041 558.588 700.897 557.912 699.267 557.475L694.896 556.304L692.746 564.328L697.117 565.499C698.747 565.935 700.076 565.921 701.105 565.457C702.138 564.974 702.827 564.09 703.171 562.805ZM721.951 576.744L711.885 574.048L708.653 578.175L704.799 577.142L719.251 559.439L722.932 560.425L726.626 582.99L722.715 581.943L721.951 576.744ZM721.5 573.48L720.062 563.663L713.937 571.453L721.5 573.48ZM745.678 584.704L744.831 587.868L727.662 583.268L728.333 580.766L744.057 569.475L732.41 566.355L733.257 563.191L749.85 567.637L749.18 570.139L733.456 581.43L745.678 584.704ZM754.86 567.469C755.531 567.649 756.028 568.018 756.351 568.577C756.674 569.137 756.743 569.761 756.558 570.451C756.465 570.796 756.328 571.119 756.144 571.419C755.98 571.725 755.687 572.17 755.263 572.755L752.673 576.438L750.344 575.814L752.681 571.693C752.3 571.427 752.034 571.078 751.882 570.647C751.755 570.202 751.76 569.721 751.899 569.203C752.084 568.513 752.456 568.006 753.015 567.684C753.574 567.361 754.189 567.289 754.86 567.469ZM771.214 591.577L770.374 594.711L755.276 590.666L760.67 570.536L775.365 574.473L774.525 577.608L763.568 574.672L762.166 579.906L771.886 582.51L771.062 585.587L761.342 582.983L759.855 588.533L771.214 591.577ZM791.61 589.182C792.625 589.844 793.342 590.694 793.763 591.731C794.189 592.749 794.232 593.891 793.893 595.156C793.426 596.901 792.393 598.073 790.794 598.672C789.2 599.252 787.119 599.198 784.55 598.509L774.542 595.828L779.935 575.698L789.368 578.225C791.745 578.862 793.45 579.822 794.483 581.106C795.521 582.37 795.822 583.817 795.385 585.447C795.118 586.443 794.652 587.264 793.986 587.907C793.321 588.551 792.529 588.976 791.61 589.182ZM782.888 579.632L781.401 585.183L786.692 586.6C787.996 586.95 789.055 586.987 789.868 586.712C790.706 586.422 791.245 585.827 791.487 584.926C791.733 584.006 791.564 583.221 790.978 582.57C790.416 581.906 789.483 581.399 788.179 581.05L782.888 579.632ZM785.106 595.514C788 596.29 789.707 595.71 790.226 593.773C790.745 591.837 789.557 590.481 786.662 589.705L780.623 588.087L779.066 593.896L785.106 595.514Z" fill="#141414"/>
</g>
<g clip-path="url(#clip2_1239_47)">
<rect width="1109.82" height="49.7729" transform="translate(-328 553.243) rotate(-15)" fill="#5AC7A5"/>
<path d="M-295.326 582.404L-301.019 577.611C-301.186 577.676 -301.442 577.755 -301.787 577.847L-306.331 579.065L-304.759 584.932L-308.497 585.933L-313.892 565.803L-305.61 563.584C-303.865 563.116 -302.273 562.998 -300.835 563.229C-299.377 563.455 -298.159 564.012 -297.181 564.901C-296.203 565.789 -295.517 566.972 -295.121 568.448C-294.715 569.962 -294.74 571.366 -295.195 572.659C-295.63 573.947 -296.466 575.045 -297.703 575.951L-291.3 581.325L-295.326 582.404ZM-298.888 569.457C-299.232 568.173 -299.919 567.299 -300.947 566.834C-301.976 566.37 -303.305 566.357 -304.934 566.793L-309.306 567.965L-307.156 575.988L-302.784 574.817C-301.155 574.38 -300.011 573.703 -299.352 572.787C-298.699 571.852 -298.544 570.742 -298.888 569.457ZM-275.655 572.139L-285.721 574.836L-286.456 580.027L-290.31 581.06L-286.646 558.502L-282.965 557.515L-268.483 575.21L-272.394 576.258L-275.655 572.139ZM-277.678 569.537L-283.832 561.755L-285.241 571.564L-277.678 569.537ZM-251.127 567.169L-250.279 570.332L-267.447 574.933L-268.117 572.431L-260.146 554.791L-271.792 557.912L-272.64 554.749L-256.047 550.302L-255.377 552.804L-263.348 570.444L-251.127 567.169ZM-251.792 547.652C-251.121 547.472 -250.506 547.543 -249.947 547.866C-249.388 548.189 -249.016 548.695 -248.831 549.386C-248.739 549.731 -248.697 550.079 -248.705 550.431C-248.694 550.777 -248.726 551.31 -248.801 552.028L-249.202 556.512L-251.531 557.137L-251.568 552.4C-252.031 552.359 -252.436 552.191 -252.782 551.893C-253.115 551.571 -253.351 551.152 -253.49 550.634C-253.675 549.944 -253.606 549.319 -253.283 548.76C-252.96 548.201 -252.463 547.831 -251.792 547.652ZM-225.576 560.353L-224.736 563.487L-239.833 567.533L-245.228 547.403L-230.533 543.465L-229.693 546.599L-240.649 549.536L-239.247 554.769L-229.527 552.165L-228.702 555.242L-238.422 557.846L-236.935 563.397L-225.576 560.353ZM-209.11 548.08C-207.9 548.147 -206.854 548.524 -205.971 549.212C-205.093 549.881 -204.484 550.848 -204.145 552.113C-203.678 553.858 -203.987 555.389 -205.072 556.707C-206.162 558.006 -207.992 559 -210.561 559.689L-220.568 562.37L-225.963 542.24L-216.53 539.712C-214.153 539.075 -212.196 539.055 -210.66 539.65C-209.129 540.226 -208.145 541.329 -207.708 542.958C-207.441 543.955 -207.435 544.899 -207.689 545.789C-207.944 546.679 -208.417 547.443 -209.11 548.08ZM-221.438 544.172L-219.951 549.722L-214.659 548.304C-213.356 547.954 -212.42 547.457 -211.854 546.812C-211.273 546.143 -211.103 545.358 -211.344 544.457C-211.591 543.536 -212.131 542.941 -212.963 542.671C-213.782 542.377 -214.843 542.404 -216.147 542.754L-221.438 544.172ZM-211.577 556.817C-208.682 556.041 -207.494 554.685 -208.013 552.749C-208.532 550.812 -210.238 550.232 -213.133 551.008L-219.172 552.626L-217.616 558.435L-211.577 556.817ZM-177.573 550.849L-183.265 546.055C-183.432 546.121 -183.688 546.2 -184.034 546.292L-188.577 547.51L-187.005 553.376L-190.744 554.378L-196.138 534.248L-187.856 532.028C-186.111 531.561 -184.52 531.443 -183.081 531.674C-181.623 531.899 -180.405 532.457 -179.427 533.345C-178.45 534.234 -177.763 535.416 -177.367 536.893C-176.961 538.407 -176.986 539.811 -177.441 541.104C-177.876 542.392 -178.713 543.489 -179.949 544.396L-173.547 549.77L-177.573 550.849ZM-181.135 537.902C-181.479 536.618 -182.165 535.743 -183.194 535.279C-184.222 534.815 -185.551 534.801 -187.181 535.238L-191.552 536.409L-189.402 544.433L-185.031 543.261C-183.401 542.825 -182.257 542.148 -181.598 541.232C-180.945 540.297 -180.79 539.187 -181.135 537.902ZM-157.902 540.584L-167.967 543.281L-168.703 548.472L-172.556 549.504L-168.892 526.947L-165.211 525.96L-150.729 543.655L-154.64 544.703L-157.902 540.584ZM-159.924 537.982L-166.078 530.2L-167.487 540.009L-159.924 537.982ZM-133.373 535.614L-132.525 538.777L-149.693 543.378L-150.364 540.876L-142.392 523.236L-154.039 526.357L-154.886 523.193L-138.293 518.747L-137.623 521.249L-145.595 538.889L-133.373 535.614ZM-134.039 516.096C-133.368 515.917 -132.752 515.988 -132.193 516.311C-131.634 516.634 -131.262 517.14 -131.077 517.83C-130.985 518.175 -130.943 518.524 -130.951 518.875C-130.941 519.222 -130.973 519.754 -131.047 520.473L-131.448 524.957L-133.778 525.581L-133.814 520.845C-134.277 520.804 -134.682 520.635 -135.029 520.338C-135.362 520.016 -135.597 519.596 -135.736 519.079C-135.921 518.389 -135.852 517.764 -135.529 517.205C-135.206 516.646 -134.71 516.276 -134.039 516.096ZM-107.822 528.797L-106.982 531.932L-122.08 535.978L-127.474 515.848L-112.779 511.91L-111.939 515.044L-122.896 517.98L-121.493 523.214L-111.773 520.609L-110.948 523.686L-120.668 526.291L-119.181 531.841L-107.822 528.797ZM-91.3558 516.525C-90.1463 516.591 -89.1 516.969 -88.2169 517.657C-87.3391 518.325 -86.7306 519.293 -86.3915 520.558C-85.924 522.302 -86.2328 523.834 -87.3179 525.152C-88.4082 526.451 -90.2378 527.445 -92.8068 528.133L-102.814 530.815L-108.209 510.685L-98.7764 508.157C-96.3991 507.52 -94.4424 507.499 -92.9061 508.094C-91.375 508.67 -90.3911 509.773 -89.9544 511.403C-89.6873 512.4 -89.681 513.343 -89.9356 514.233C-90.1903 515.124 -90.6637 515.888 -91.3558 516.525ZM-103.684 512.616L-102.197 518.167L-96.9056 516.749C-95.602 516.399 -94.6667 515.902 -94.0998 515.257C-93.5189 514.588 -93.3492 513.802 -93.5907 512.901C-93.8373 511.981 -94.3769 511.386 -95.2095 511.116C-96.0282 510.822 -97.0893 510.849 -98.393 511.198L-103.684 512.616ZM-93.8229 525.262C-90.928 524.486 -89.74 523.13 -90.2589 521.194C-90.7778 519.257 -92.4847 518.677 -95.3796 519.453L-101.419 521.071L-99.862 526.88L-93.8229 525.262ZM-59.8189 519.293L-65.511 514.5C-65.6784 514.565 -65.9347 514.644 -66.2798 514.737L-70.8234 515.954L-69.2514 521.821L-72.9898 522.823L-78.3842 502.693L-70.1021 500.473C-68.3575 500.006 -66.7659 499.887 -65.3272 500.118C-63.8694 500.344 -62.6516 500.901 -61.6737 501.79C-60.6958 502.679 -60.0091 503.861 -59.6135 505.337C-59.2077 506.852 -59.2321 508.256 -59.687 509.549C-60.1227 510.837 -60.9588 511.934 -62.1953 512.841L-55.7929 518.214L-59.8189 519.293ZM-63.3807 506.347C-63.725 505.062 -64.4113 504.188 -65.4398 503.724C-66.4683 503.26 -67.7974 503.246 -69.427 503.683L-73.7981 504.854L-71.648 512.877L-67.2769 511.706C-65.6473 511.269 -64.5032 510.593 -63.8446 509.677C-63.1911 508.741 -63.0365 507.631 -63.3807 506.347ZM-40.1479 509.029L-50.213 511.726L-50.9488 516.916L-54.8023 517.949L-51.1381 495.391L-47.4572 494.405L-32.9754 512.1L-36.8864 513.148L-40.1479 509.029ZM-42.1705 506.427L-48.3246 498.644L-49.7337 508.454L-42.1705 506.427ZM-15.619 504.058L-14.7713 507.222L-31.9395 511.822L-32.6099 509.32L-24.6382 491.68L-36.2849 494.801L-37.1326 491.638L-20.5396 487.192L-19.8691 489.693L-27.8409 507.333L-15.619 504.058ZM-16.2848 484.541C-15.6138 484.361 -14.9987 484.433 -14.4396 484.756C-13.8805 485.078 -13.5085 485.585 -13.3235 486.275C-13.231 486.62 -13.1891 486.968 -13.1976 487.32C-13.1869 487.667 -13.2189 488.199 -13.2934 488.918L-13.6945 493.402L-16.0239 494.026L-16.0604 489.289C-16.5232 489.249 -16.9281 489.08 -17.2749 488.783C-17.6077 488.461 -17.8435 488.041 -17.9822 487.523C-18.1672 486.833 -18.0983 486.209 -17.7755 485.649C-17.4527 485.09 -16.9558 484.721 -16.2848 484.541ZM9.9318 497.242L10.7718 500.377L-4.32586 504.422L-9.72028 484.292L4.97476 480.354L5.81475 483.489L-5.14183 486.425L-3.73928 491.659L5.98073 489.054L6.80531 492.131L-2.9147 494.736L-1.42738 500.286L9.9318 497.242ZM26.3979 484.97C27.6075 485.036 28.6538 485.413 29.5368 486.101C30.4147 486.77 31.0232 487.737 31.3623 489.003C31.8298 490.747 31.521 492.279 30.4358 493.597C29.3456 494.896 27.5159 495.89 24.9469 496.578L14.9393 499.26L9.54492 479.13L18.9774 476.602C21.3546 475.965 23.3114 475.944 24.8476 476.539C26.3787 477.115 27.3626 478.218 27.7993 479.848C28.0665 480.845 28.0727 481.788 27.8181 482.678C27.5635 483.568 27.0901 484.332 26.3979 484.97ZM14.0694 481.061L15.5568 486.611L20.8481 485.193C22.1518 484.844 23.0871 484.347 23.6539 483.702C24.2348 483.032 24.4046 482.247 24.1631 481.346C23.9165 480.426 23.3769 479.831 22.5442 479.561C21.7256 479.266 20.6645 479.294 19.3608 479.643L14.0694 481.061ZM23.9308 493.706C26.8257 492.931 28.0137 491.575 27.4949 489.638C26.976 487.702 25.2691 487.122 22.3741 487.897L16.3351 489.516L17.8918 495.325L23.9308 493.706ZM57.9349 487.738L52.2427 482.945C52.0753 483.01 51.8191 483.089 51.474 483.182L46.9303 484.399L48.5024 490.266L44.764 491.268L39.3695 471.137L47.6517 468.918C49.3963 468.45 50.9879 468.332 52.4265 468.563C53.8843 468.789 55.1022 469.346 56.08 470.235C57.0579 471.123 57.7447 472.306 58.1403 473.782C58.5461 475.297 58.5216 476.7 58.0668 477.994C57.6311 479.282 56.795 480.379 55.5585 481.286L61.9609 486.659L57.9349 487.738ZM54.373 474.792C54.0288 473.507 53.3425 472.633 52.314 472.169C51.2855 471.705 49.9564 471.691 48.3268 472.127L43.9557 473.299L46.1058 481.322L50.4769 480.151C52.1065 479.714 53.2506 479.038 53.9092 478.121C54.5626 477.186 54.7172 476.076 54.373 474.792ZM77.6059 477.473L67.5408 480.171L66.8049 485.361L62.9514 486.394L66.6156 463.836L70.2966 462.85L84.7783 480.545L80.8673 481.593L77.6059 477.473ZM75.5833 474.872L69.4292 467.089L68.0201 476.898L75.5833 474.872ZM102.135 472.503L102.982 475.666L85.8143 480.267L85.1438 477.765L93.1156 460.125L81.4688 463.246L80.6212 460.083L97.2142 455.636L97.8846 458.138L89.9129 475.778L102.135 472.503ZM101.469 452.986C102.14 452.806 102.755 452.878 103.314 453.2C103.873 453.523 104.245 454.03 104.43 454.72C104.523 455.065 104.565 455.413 104.556 455.765C104.567 456.111 104.535 456.644 104.46 457.362L104.059 461.847L101.73 462.471L101.693 457.734C101.231 457.694 100.826 457.525 100.479 457.227C100.146 456.906 99.9103 456.486 99.7715 455.968C99.5866 455.278 99.6555 454.653 99.9783 454.094C100.301 453.535 100.798 453.166 101.469 452.986ZM127.686 465.687L128.526 468.821L113.428 472.867L108.033 452.737L122.729 448.799L123.569 451.934L112.612 454.87L114.014 460.104L123.734 457.499L124.559 460.576L114.839 463.181L116.326 468.731L127.686 465.687ZM144.152 453.415C145.361 453.481 146.408 453.858 147.291 454.546C148.168 455.215 148.777 456.182 149.116 457.447C149.584 459.192 149.275 460.723 148.19 462.042C147.099 463.341 145.27 464.334 142.701 465.023L132.693 467.705L127.299 447.574L136.731 445.047C139.108 444.41 141.065 444.389 142.601 444.984C144.133 445.56 145.116 446.663 145.553 448.292C145.82 449.289 145.827 450.233 145.572 451.123C145.317 452.013 144.844 452.777 144.152 453.415ZM131.823 449.506L133.311 455.056L138.602 453.638C139.906 453.289 140.841 452.791 141.408 452.146C141.989 451.477 142.158 450.692 141.917 449.791C141.67 448.87 141.131 448.275 140.298 448.005C139.479 447.711 138.418 447.738 137.115 448.088L131.823 449.506ZM141.685 462.151C144.58 461.375 145.768 460.019 145.249 458.083C144.73 456.147 143.023 455.566 140.128 456.342L134.089 457.96L135.646 463.769L141.685 462.151ZM175.689 456.183L169.997 451.39C169.829 451.455 169.573 451.534 169.228 451.626L164.684 452.844L166.256 458.71L162.518 459.712L157.123 439.582L165.405 437.363C167.15 436.895 168.742 436.777 170.18 437.008C171.638 437.234 172.856 437.791 173.834 438.679C174.812 439.568 175.498 440.751 175.894 442.227C176.3 443.741 176.275 445.145 175.821 446.438C175.385 447.726 174.549 448.824 173.312 449.73L179.715 455.104L175.689 456.183ZM172.127 443.236C171.783 441.952 171.096 441.078 170.068 440.613C169.039 440.149 167.71 440.136 166.081 440.572L161.709 441.744L163.86 449.767L168.231 448.596C169.86 448.159 171.004 447.482 171.663 446.566C172.316 445.631 172.471 444.521 172.127 443.236ZM195.36 445.918L185.295 448.615L184.559 453.806L180.705 454.838L184.369 432.281L188.05 431.294L202.532 448.989L198.621 450.037L195.36 445.918ZM193.337 443.316L187.183 435.534L185.774 445.343L193.337 443.316ZM219.889 440.948L220.736 444.111L203.568 448.712L202.898 446.21L210.869 428.57L199.223 431.691L198.375 428.528L214.968 424.081L215.638 426.583L207.667 444.223L219.889 440.948ZM219.223 421.431C219.894 421.251 220.509 421.322 221.068 421.645C221.627 421.968 221.999 422.474 222.184 423.164C222.277 423.51 222.318 423.858 222.31 424.21C222.321 424.556 222.289 425.089 222.214 425.807L221.813 430.291L219.484 430.916L219.447 426.179C218.984 426.138 218.579 425.969 218.233 425.672C217.9 425.35 217.664 424.931 217.525 424.413C217.34 423.723 217.409 423.098 217.732 422.539C218.055 421.98 218.552 421.61 219.223 421.431ZM245.439 434.132L246.279 437.266L231.182 441.312L225.787 421.182L240.482 417.244L241.322 420.378L230.366 423.314L231.768 428.548L241.488 425.944L242.313 429.021L232.593 431.625L234.08 437.176L245.439 434.132ZM261.905 421.859C263.115 421.926 264.161 422.303 265.044 422.991C265.922 423.66 266.531 424.627 266.87 425.892C267.337 427.637 267.028 429.168 265.943 430.486C264.853 431.785 263.023 432.779 260.454 433.468L250.447 436.149L245.052 416.019L254.485 413.491C256.862 412.854 258.819 412.833 260.355 413.429C261.886 414.005 262.87 415.107 263.307 416.737C263.574 417.734 263.58 418.678 263.326 419.568C263.071 420.458 262.598 421.222 261.905 421.859ZM249.577 417.951L251.064 423.501L256.356 422.083C257.659 421.733 258.595 421.236 259.161 420.591C259.742 419.922 259.912 419.137 259.671 418.235C259.424 417.315 258.884 416.72 258.052 416.45C257.233 416.156 256.172 416.183 254.868 416.533L249.577 417.951ZM259.438 430.596C262.333 429.82 263.521 428.464 263.002 426.528C262.483 424.591 260.777 424.011 257.882 424.787L251.843 426.405L253.399 432.214L259.438 430.596ZM293.442 424.628L287.75 419.834C287.583 419.9 287.327 419.979 286.982 420.071L282.438 421.289L284.01 427.155L280.272 428.157L274.877 408.027L283.159 405.807C284.904 405.34 286.495 405.222 287.934 405.453C289.392 405.678 290.61 406.236 291.588 407.124C292.565 408.013 293.252 409.195 293.648 410.672C294.054 412.186 294.029 413.59 293.574 414.883C293.139 416.171 292.303 417.268 291.066 418.175L297.468 423.549L293.442 424.628ZM289.881 411.681C289.536 410.397 288.85 409.522 287.822 409.058C286.793 408.594 285.464 408.58 283.834 409.017L279.463 410.188L281.613 418.212L285.984 417.04C287.614 416.604 288.758 415.927 289.417 415.011C290.07 414.075 290.225 412.966 289.881 411.681ZM313.113 414.363L303.048 417.06L302.312 422.251L298.459 423.283L302.123 400.726L305.804 399.739L320.286 417.434L316.375 418.482L313.113 414.363ZM311.091 411.761L304.937 403.978L303.528 413.788L311.091 411.761ZM337.642 409.393L338.49 412.556L321.322 417.156L320.651 414.655L328.623 397.015L316.976 400.136L316.129 396.972L332.722 392.526L333.392 395.028L325.42 412.668L337.642 409.393ZM336.977 389.875C337.648 389.696 338.263 389.767 338.822 390.09C339.381 390.413 339.753 390.919 339.938 391.609C340.03 391.954 340.072 392.303 340.064 392.654C340.074 393.001 340.042 393.533 339.968 394.252L339.567 398.736L337.237 399.36L337.201 394.623C336.738 394.583 336.333 394.414 335.986 394.117C335.654 393.795 335.418 393.375 335.279 392.858C335.094 392.167 335.163 391.543 335.486 390.984C335.809 390.425 336.306 390.055 336.977 389.875ZM363.193 402.576L364.033 405.711L348.935 409.757L343.541 389.626L358.236 385.689L359.076 388.823L348.119 391.759L349.522 396.993L359.242 394.388L360.067 397.465L350.347 400.07L351.834 405.62L363.193 402.576ZM379.659 390.304C380.869 390.37 381.915 390.747 382.798 391.436C383.676 392.104 384.285 393.071 384.624 394.337C385.091 396.081 384.782 397.613 383.697 398.931C382.607 400.23 380.777 401.224 378.208 401.912L368.201 404.594L362.806 384.464L372.239 381.936C374.616 381.299 376.573 381.278 378.109 381.873C379.64 382.449 380.624 383.552 381.061 385.182C381.328 386.179 381.334 387.122 381.079 388.012C380.825 388.903 380.351 389.666 379.659 390.304ZM367.331 386.395L368.818 391.945L374.109 390.528C375.413 390.178 376.348 389.681 376.915 389.036C377.496 388.366 377.666 387.581 377.424 386.68C377.178 385.76 376.638 385.165 375.806 384.895C374.987 384.6 373.926 384.628 372.622 384.977L367.331 386.395ZM377.192 399.041C380.087 398.265 381.275 396.909 380.756 394.972C380.237 393.036 378.53 392.456 375.635 393.232L369.596 394.85L371.153 400.659L377.192 399.041ZM411.196 393.072L405.504 388.279C405.337 388.344 405.08 388.423 404.735 388.516L400.192 389.733L401.764 395.6L398.025 396.602L392.631 376.472L400.913 374.252C402.658 373.785 404.249 373.666 405.688 373.897C407.146 374.123 408.363 374.68 409.341 375.569C410.319 376.458 411.006 377.64 411.402 379.116C411.807 380.631 411.783 382.035 411.328 383.328C410.892 384.616 410.056 385.713 408.82 386.62L415.222 391.993L411.196 393.072ZM407.634 380.126C407.29 378.841 406.604 377.967 405.575 377.503C404.547 377.039 403.218 377.025 401.588 377.462L397.217 378.633L399.367 386.656L403.738 385.485C405.368 385.048 406.512 384.372 407.17 383.456C407.824 382.52 407.979 381.41 407.634 380.126ZM430.867 382.808L420.802 385.505L420.066 390.695L416.213 391.728L419.877 369.17L423.558 368.184L438.04 385.879L434.129 386.927L430.867 382.808ZM428.845 380.206L422.69 372.423L421.281 382.233L428.845 380.206ZM455.396 377.837L456.244 381.001L439.076 385.601L438.405 383.099L446.377 365.459L434.73 368.58L433.882 365.417L450.475 360.971L451.146 363.472L443.174 381.112L455.396 377.837ZM454.73 358.32C455.401 358.14 456.016 358.212 456.575 358.535C457.135 358.857 457.507 359.364 457.692 360.054C457.784 360.399 457.826 360.747 457.817 361.099C457.828 361.445 457.796 361.978 457.722 362.697L457.321 367.181L454.991 367.805L454.955 363.068C454.492 363.028 454.087 362.859 453.74 362.562C453.407 362.24 453.172 361.82 453.033 361.302C452.848 360.612 452.917 359.988 453.24 359.428C453.562 358.869 454.059 358.5 454.73 358.32ZM480.947 371.021L481.787 374.156L466.689 378.201L461.295 358.071L475.99 354.133L476.83 357.268L465.873 360.204L467.276 365.438L476.996 362.833L477.82 365.91L468.1 368.515L469.588 374.065L480.947 371.021ZM497.413 358.749C498.623 358.815 499.669 359.192 500.552 359.88C501.43 360.549 502.038 361.516 502.377 362.782C502.845 364.526 502.536 366.058 501.451 367.376C500.361 368.675 498.531 369.669 495.962 370.357L485.954 373.039L480.56 352.909L489.992 350.381C492.37 349.744 494.326 349.723 495.863 350.318C497.394 350.894 498.378 351.997 498.814 353.627C499.082 354.623 499.088 355.567 498.833 356.457C498.579 357.347 498.105 358.111 497.413 358.749ZM485.085 354.84L486.572 360.39L491.863 358.972C493.167 358.623 494.102 358.126 494.669 357.481C495.25 356.811 495.42 356.026 495.178 355.125C494.932 354.205 494.392 353.61 493.559 353.34C492.741 353.045 491.68 353.073 490.376 353.422L485.085 354.84ZM494.946 367.485C497.841 366.71 499.029 365.354 498.51 363.417C497.991 361.481 496.284 360.901 493.389 361.676L487.35 363.295L488.907 369.104L494.946 367.485ZM528.95 361.517L523.258 356.724C523.09 356.789 522.834 356.868 522.489 356.961L517.945 358.178L519.517 364.045L515.779 365.046L510.385 344.916L518.667 342.697C520.411 342.229 522.003 342.111 523.442 342.342C524.899 342.568 526.117 343.125 527.095 344.014C528.073 344.902 528.76 346.085 529.155 347.561C529.561 349.076 529.537 350.479 529.082 351.773C528.646 353.061 527.81 354.158 526.574 355.065L532.976 360.438L528.95 361.517ZM525.388 348.571C525.044 347.286 524.358 346.412 523.329 345.948C522.301 345.483 520.971 345.47 519.342 345.906L514.971 347.078L517.121 355.101L521.492 353.93C523.122 353.493 524.266 352.817 524.924 351.9C525.578 350.965 525.732 349.855 525.388 348.571ZM548.621 351.252L538.556 353.95L537.82 359.14L533.966 360.173L537.631 337.615L541.312 336.629L555.793 354.324L551.882 355.372L548.621 351.252ZM546.598 348.651L540.444 340.868L539.035 350.677L546.598 348.651ZM573.15 346.282L573.997 349.445L556.829 354.046L556.159 351.544L564.131 333.904L552.484 337.025L551.636 333.862L568.229 329.415L568.9 331.917L560.928 349.557L573.15 346.282ZM572.484 326.765C573.155 326.585 573.77 326.656 574.329 326.979C574.888 327.302 575.26 327.809 575.445 328.499C575.538 328.844 575.58 329.192 575.571 329.544C575.582 329.89 575.55 330.423 575.475 331.141L575.074 335.626L572.745 336.25L572.708 331.513C572.246 331.473 571.841 331.304 571.494 331.006C571.161 330.684 570.925 330.265 570.787 329.747C570.602 329.057 570.671 328.432 570.993 327.873C571.316 327.314 571.813 326.945 572.484 326.765ZM598.701 339.466L599.541 342.6L584.443 346.646L579.049 326.516L593.744 322.578L594.584 325.713L583.627 328.649L585.03 333.883L594.75 331.278L595.574 334.355L585.854 336.96L587.341 342.51L598.701 339.466ZM615.167 327.193C616.376 327.26 617.423 327.637 618.306 328.325C619.184 328.994 619.792 329.961 620.131 331.226C620.599 332.971 620.29 334.502 619.205 335.821C618.114 337.12 616.285 338.113 613.716 338.802L603.708 341.484L598.314 321.353L607.746 318.826C610.124 318.189 612.08 318.168 613.616 318.763C615.148 319.339 616.131 320.442 616.568 322.071C616.835 323.068 616.842 324.012 616.587 324.902C616.332 325.792 615.859 326.556 615.167 327.193ZM602.838 323.285L604.326 328.835L609.617 327.417C610.921 327.068 611.856 326.57 612.423 325.925C613.004 325.256 613.173 324.471 612.932 323.57C612.685 322.649 612.146 322.054 611.313 321.784C610.494 321.49 609.433 321.517 608.13 321.867L602.838 323.285ZM612.7 335.93C615.595 335.154 616.783 333.798 616.264 331.862C615.745 329.926 614.038 329.345 611.143 330.121L605.104 331.739L606.661 337.548L612.7 335.93ZM646.704 329.962L641.012 325.168C640.844 325.234 640.588 325.313 640.243 325.405L635.699 326.623L637.271 332.489L633.533 333.491L628.138 313.361L636.421 311.142C638.165 310.674 639.757 310.556 641.195 310.787C642.653 311.013 643.871 311.57 644.849 312.458C645.827 313.347 646.513 314.53 646.909 316.006C647.315 317.52 647.29 318.924 646.836 320.217C646.4 321.505 645.564 322.603 644.327 323.509L650.73 328.883L646.704 329.962ZM643.142 317.015C642.798 315.731 642.111 314.856 641.083 314.392C640.054 313.928 638.725 313.914 637.096 314.351L632.725 315.523L634.875 323.546L639.246 322.374C640.875 321.938 642.019 321.261 642.678 320.345C643.331 319.41 643.486 318.3 643.142 317.015ZM666.375 319.697L656.31 322.394L655.574 327.585L651.72 328.617L655.384 306.06L659.065 305.073L673.547 322.768L669.636 323.816L666.375 319.697ZM664.352 317.095L658.198 309.313L656.789 319.122L664.352 317.095ZM690.904 314.727L691.751 317.89L674.583 322.491L673.913 319.989L681.884 302.349L670.238 305.47L669.39 302.307L685.983 297.86L686.653 300.362L678.682 318.002L690.904 314.727ZM690.238 295.21C690.909 295.03 691.524 295.101 692.083 295.424C692.642 295.747 693.014 296.253 693.199 296.943C693.292 297.289 693.334 297.637 693.325 297.988C693.336 298.335 693.304 298.867 693.229 299.586L692.828 304.07L690.499 304.695L690.462 299.958C689.999 299.917 689.595 299.748 689.248 299.451C688.915 299.129 688.679 298.709 688.54 298.192C688.355 297.502 688.424 296.877 688.747 296.318C689.07 295.759 689.567 295.389 690.238 295.21ZM716.454 307.911L717.294 311.045L702.197 315.091L696.802 294.961L711.497 291.023L712.337 294.157L701.381 297.093L702.783 302.327L712.503 299.723L713.328 302.8L703.608 305.404L705.095 310.955L716.454 307.911ZM732.92 295.638C734.13 295.705 735.176 296.082 736.059 296.77C736.937 297.439 737.546 298.406 737.885 299.671C738.352 301.416 738.044 302.947 736.958 304.265C735.868 305.564 734.038 306.558 731.469 307.246L721.462 309.928L716.067 289.798L725.5 287.27C727.877 286.633 729.834 286.612 731.37 287.208C732.901 287.784 733.885 288.886 734.322 290.516C734.589 291.513 734.595 292.457 734.341 293.347C734.086 294.237 733.613 295.001 732.92 295.638ZM720.592 291.73L722.079 297.28L727.371 295.862C728.674 295.512 729.61 295.015 730.177 294.37C730.757 293.701 730.927 292.916 730.686 292.014C730.439 291.094 729.899 290.499 729.067 290.229C728.248 289.935 727.187 289.962 725.883 290.312L720.592 291.73ZM730.453 304.375C733.348 303.599 734.536 302.243 734.017 300.307C733.499 298.37 731.792 297.79 728.897 298.566L722.858 300.184L724.414 305.993L730.453 304.375ZM764.457 298.406L758.765 293.613C758.598 293.679 758.342 293.758 757.997 293.85L753.453 295.068L755.025 300.934L751.287 301.936L745.892 281.806L754.174 279.586C755.919 279.119 757.511 279.001 758.949 279.231C760.407 279.457 761.625 280.015 762.603 280.903C763.581 281.792 764.267 282.974 764.663 284.45C765.069 285.965 765.044 287.369 764.589 288.662C764.154 289.95 763.318 291.047 762.081 291.954L768.483 297.328L764.457 298.406ZM760.896 285.46C760.551 284.176 759.865 283.301 758.837 282.837C757.808 282.373 756.479 282.359 754.849 282.796L750.478 283.967L752.628 291.991L756.999 290.819C758.629 290.383 759.773 289.706 760.432 288.79C761.085 287.854 761.24 286.745 760.896 285.46ZM784.128 288.142L774.063 290.839L773.328 296.03L769.474 297.062L773.138 274.504L776.819 273.518L791.301 291.213L787.39 292.261L784.128 288.142ZM782.106 285.54L775.952 277.757L774.543 287.567L782.106 285.54ZM808.657 283.171L809.505 286.335L792.337 290.935L791.666 288.434L799.638 270.794L787.991 273.915L787.144 270.751L803.737 266.305L804.407 268.807L796.435 286.447L808.657 283.171ZM807.992 263.654C808.663 263.474 809.278 263.546 809.837 263.869C810.396 264.192 810.768 264.698 810.953 265.388C811.045 265.733 811.087 266.082 811.079 266.433C811.089 266.78 811.058 267.312 810.983 268.031L810.582 272.515L808.253 273.139L808.216 268.402C807.753 268.362 807.348 268.193 807.001 267.896C806.669 267.574 806.433 267.154 806.294 266.637C806.109 265.946 806.178 265.322 806.501 264.763C806.824 264.204 807.321 263.834 807.992 263.654ZM834.208 276.355L835.048 279.49L819.951 283.536L814.556 263.405L829.251 259.468L830.091 262.602L819.135 265.538L820.537 270.772L830.257 268.167L831.082 271.244L821.362 273.849L822.849 279.399L834.208 276.355ZM850.674 264.083C851.884 264.149 852.93 264.526 853.813 265.214C854.691 265.883 855.3 266.85 855.639 268.116C856.106 269.86 855.797 271.392 854.712 272.71C853.622 274.009 851.792 275.003 849.223 275.691L839.216 278.373L833.821 258.243L843.254 255.715C845.631 255.078 847.588 255.057 849.124 255.652C850.655 256.228 851.639 257.331 852.076 258.961C852.343 259.958 852.349 260.901 852.095 261.791C851.84 262.682 851.366 263.445 850.674 264.083ZM838.346 260.174L839.833 265.724L845.125 264.306C846.428 263.957 847.363 263.46 847.93 262.815C848.511 262.145 848.681 261.36 848.439 260.459C848.193 259.539 847.653 258.944 846.821 258.674C846.002 258.379 844.941 258.407 843.637 258.756L838.346 260.174ZM848.207 272.82C851.102 272.044 852.29 270.688 851.771 268.751C851.252 266.815 849.545 266.235 846.651 267.011L840.611 268.629L842.168 274.438L848.207 272.82Z" fill="#141414"/>
</g>
</g>
<defs>
<clipPath id="clip0_1239_47">
<rect width="430" height="867" fill="white"/>
</clipPath>
<clipPath id="clip1_1239_47">
<rect width="1109.82" height="49.7729" fill="white" transform="translate(-315 266) rotate(15)"/>
</clipPath>
<clipPath id="clip2_1239_47">
<rect width="1109.82" height="49.7729" fill="white" transform="translate(-328 553.243) rotate(-15)"/>
</clipPath>
</defs>
</svg>
